<?xml version="1.0" encoding="utf-8"?>
<!-- Generator: Adobe Illustrator 18.1.1, SVG Export Plug-In . SVG Version: 6.00 Build 0)  -->
<svg version="1.1" id="Layer_1" xmlns="http://www.w3.org/2000/svg" xmlns:xlink="http://www.w3.org/1999/xlink" x="0px" y="0px"
	 width="180px" height="90px" viewBox="0 0 180 90" enable-background="new 0 0 180 90" xml:space="preserve">
<g id="Flag">
	<rect fill="#34495E" width="180" height="90"/>
	<g id="Union_Jack">
		<rect fill="#34495E" width="90" height="45"/>
		<polygon fill="#ECF0F1" points="90,0 79.5,0 52,13.5 52,0 37,0 37,13.5 10.5,0 0,0 0,5.1 19.9,15 0,15 0,30 19.9,30 0,39.9 0,45 
			10.5,45 37,31.5 37,45 52,45 52,31.5 79.5,45 90,45 90,39.9 70.1,30 90,30 90,15 70.1,15 90,5.1 		"/>
		<g>
			<g>
				<polygon fill="#E74C3C" points="30,15 0,0 0,3.4 23.2,15 				"/>
				<polygon fill="#E74C3C" points="66.8,30 60,30 90,45 90,41.6 				"/>
				<polygon fill="#E74C3C" points="53.3,15 60,15 90,0 83.2,0 				"/>
				<polygon fill="#E74C3C" points="36.8,30 30,30 0,45 6.8,45 				"/>
			</g>
			<polygon fill-rule="evenodd" clip-rule="evenodd" fill="#E74C3C" points="90,18 49.5,18 49.5,0 40.5,0 40.5,18 0,18 0,27 
				40.5,27 40.5,45 49.5,45 49.5,27 90,27 			"/>
		</g>
	</g>
	<g id="Stars_1_">
		<polygon id="Commonwealth_Star" fill="#ECF0F1" points="45,74.2 39.1,80.4 40.3,72 31.8,71.2 39.2,66.9 34.4,59.8 42.4,62.8 
			45,54.7 47.6,62.8 55.6,59.8 50.8,66.9 58.2,71.2 49.7,72 50.9,80.4 		"/>
		<g>
			<polygon id="Alpha_Crucis" fill="#ECF0F1" points="141.3,72.1 138.5,75 139,71 135,70.6 138.5,68.6 136.2,65.2 140,66.6 
				141.3,62.8 142.5,66.6 146.3,65.2 144.1,68.6 147.5,70.6 143.5,71 144.1,75 			"/>
			<polygon id="Beta_Crucis" fill="#ECF0F1" points="118.8,36.4 116,39.4 116.5,35.4 112.5,35 116,32.9 113.7,29.6 117.5,31 
				118.8,27.2 120,31 123.8,29.6 121.6,32.9 125,35 121,35.4 121.6,39.4 			"/>
			<polygon id="Gamma_Crucis" fill="#ECF0F1" points="141.3,24.3 138.5,27.2 139,23.2 135,22.9 138.5,20.8 136.2,17.4 140,18.9 
				141.3,15 142.5,18.9 146.3,17.4 144.1,20.8 147.5,22.9 143.5,23.2 144.1,27.2 			"/>
			<polygon id="Delta_Crucis" fill="#ECF0F1" points="161.3,30.4 158.5,33.4 159,29.4 155,29 158.5,26.9 156.2,23.6 160,25 
				161.3,21.2 162.5,25 166.3,23.6 164.1,26.9 167.5,29 163.5,29.4 164.1,33.4 			"/>
		</g>
		<polygon id="Epsilon_Crucis" fill="#ECF0F1" points="147.6,47.4 145.4,48.8 146,46.2 144,44.6 146.6,44.4 147.6,42 148.5,44.4 
			151.1,44.6 149.2,46.2 149.8,48.8 		"/>
	</g>
</g>
</svg>
