<?xml version="1.0" encoding="utf-8"?>
<!-- Generator: Adobe Illustrator 18.1.1, SVG Export Plug-In . SVG Version: 6.00 Build 0)  -->
<svg version="1.1" id="Layer_1" xmlns="http://www.w3.org/2000/svg" xmlns:xlink="http://www.w3.org/1999/xlink" x="0px" y="0px"
	 width="180px" height="90px" viewBox="0 0 180 90" enable-background="new 0 0 180 90" xml:space="preserve">
<g id="Flag_32_">
	<rect fill="#34495E" width="180" height="90"/>
	<polygon fill="#ECF0F1" points="180,0 159,0 105,27 105,0 75,0 75,27 21,0 0,0 0,10.1 39.8,30 0,30 0,60 39.8,60 0,79.9 0,90 
		21,90 75,63 75,90 105,90 105,63 159,90 180,90 180,79.9 140.2,60 180,60 180,30 140.2,30 180,10.1 	"/>
	<g>
		<g>
			<polygon fill="#E74C3C" points="60,30 0,0 0,6.8 46.5,30 			"/>
			<polygon fill="#E74C3C" points="133.5,60 120,60 180,90 180,83.2 			"/>
			<polygon fill="#E74C3C" points="106.5,30 120,30 180,0 166.5,0 			"/>
			<polygon fill="#E74C3C" points="73.5,60 60,60 0,90 13.5,90 			"/>
		</g>
		<polygon fill-rule="evenodd" clip-rule="evenodd" fill="#E74C3C" points="180,36 99.1,36 99.1,0 81.1,0 81.1,36 0,36 0,54 
			81.1,54 81.1,90 99.1,90 99.1,54 180,54 		"/>
	</g>
</g>
</svg>
