<?xml version="1.0" encoding="utf-8"?>
<!-- Generator: Adobe Illustrator 18.1.1, SVG Export Plug-In . SVG Version: 6.00 Build 0)  -->
<svg version="1.1" id="Layer_1" xmlns="http://www.w3.org/2000/svg" xmlns:xlink="http://www.w3.org/1999/xlink" x="0px" y="0px"
	 width="600px" height="400px" viewBox="-699 801 600 400" enable-background="new -699 801 600 400" xml:space="preserve">
<rect x="-699" y="801" fill="#E74C3C" width="600" height="400"/>
<rect x="-699" y="801" fill="#339966" width="240" height="400"/>
<g>
	<path fill="#F1C40F" stroke="#333333" stroke-width="0.573" stroke-linecap="round" stroke-linejoin="round" d="M-380.8,1063
		c-30.2-0.9-168.7-87.4-169.7-101.2l7.6-12.8c13.7,20,155.4,104.1,169.3,101.1L-380.8,1063"/>
	<path fill="#F1C40F" stroke="#333333" stroke-width="0.573" stroke-linecap="round" stroke-linejoin="round" d="M-544.4,947.4
		c-2.7,7.3,36.1,31.3,82.9,59.8c46.8,28.4,87.1,46,90.1,43.5c0.2-0.3,1.5-2.5,1.4-2.5c-0.6,0.8-1.9,1.1-4.1,0.5
		c-12.6-3.6-45.6-18.8-86.4-43.5c-40.8-24.7-76.3-47.5-81.8-57.2c-0.4-0.7-0.7-1.9-0.6-2.8l-0.1,0l-1.2,2.1L-544.4,947.4
		L-544.4,947.4L-544.4,947.4z M-380,1063.4c-0.5,0.9-1.5,1-3.3,0.8c-11.3-1.3-45.6-17.9-86.2-42.2c-47.2-28.3-86.2-54-82-60.7l1.2-2
		l0.2,0.1c-3.8,11.4,76.9,57.6,81.7,60.5c46.7,28.9,86.1,45.9,89.6,41.5L-380,1063.4L-380,1063.4L-380,1063.4z"/>
	<path fill="#F1C40F" stroke="#333333" stroke-width="0.573" stroke-linecap="round" stroke-linejoin="round" d="M-458.8,970.2
		c30.2-0.2,67.6-4.1,89-12.7l-4.6-7.5c-12.7,7-50.2,11.6-84.7,12.3c-40.7-0.4-69.5-4.2-83.9-13.8l-4.4,8
		C-520.9,967.7-493.7,970.1-458.8,970.2"/>
	<path fill="#F1C40F" stroke="#333333" stroke-width="0.573" stroke-linecap="round" stroke-linejoin="round" d="M-368.6,957.7
		c-0.7,1.2-14.7,6-35.4,9.6c-14,2.1-32.2,4-55,4c-21.6,0-39.3-1.5-52.7-3.3c-21.7-3.4-32.8-8.1-37-9.8c0.4-0.8,0.6-1.3,1-2.1
		c11.9,4.7,23.1,7.6,36.3,9.6c13.3,1.8,30.8,3.4,52.3,3.3c22.7,0,40.7-2,54.6-4.1c21.2-3.4,32.7-7.8,34.3-9.8L-368.6,957.7
		L-368.6,957.7L-368.6,957.7z M-372.6,950.1c-2.3,1.8-13.7,5.9-33.8,9.1c-13.4,1.9-30.5,3.6-52.3,3.7c-20.7,0-37.6-1.4-50.5-3.2
		c-20.4-2.7-31.3-7.5-35.2-8.9c0.4-0.7,0.8-1.3,1.2-2c3,1.5,13.5,5.8,34.2,8.7c12.7,1.8,29.7,3.1,50.3,3.1c21.7,0,38.6-1.8,51.9-3.7
		c20.2-2.8,31.1-7.9,32.7-9.2L-372.6,950.1L-372.6,950.1L-372.6,950.1z"/>
	<path fill="#F1C40F" stroke="#333333" stroke-width="0.573" stroke-linecap="round" stroke-linejoin="round" d="M-558.1,1006.7
		c18.6,10,59.9,15,99,15.4c35.6,0.1,82-5.5,99.3-14.7l-0.5-10c-5.4,8.5-55.1,16.6-99.2,16.3c-44.1-0.3-85-7.1-98.7-16L-558.1,1006.7
		"/>
	<path fill="#F1C40F" stroke="#333333" stroke-width="0.573" stroke-linecap="round" stroke-linejoin="round" d="M-358.9,1005.2
		l0,2.4c-2.6,3.1-18.9,7.8-39.4,11.1c-15.6,2.4-35.9,4.2-61.3,4.2c-24.1,0-43.3-1.7-58.1-4c-23.5-3.4-38.6-9.4-41.6-11.2l0-2.8
		c9.1,6,33.7,10.4,41.9,11.8c14.8,2.3,33.9,4,57.8,4c25.2,0,45.4-1.8,60.9-4.2C-383.9,1014.4-363,1008.9-358.9,1005.2L-358.9,1005.2
		L-358.9,1005.2z M-358.9,996.7l0,2.4c-2.6,3.1-18.9,7.8-39.4,11.1c-15.6,2.4-35.9,4.2-61.3,4.2c-24.1,0-43.3-1.7-58.1-4
		c-23.5-3.4-38.6-9.4-41.6-11.2l0-2.8c9.1,6,33.7,10.4,41.9,11.8c14.8,2.3,33.9,4,57.8,4c25.2,0,45.4-1.8,60.9-4.2
		C-383.9,1005.9-363,1000.4-358.9,996.7L-358.9,996.7L-358.9,996.7z"/>
	<path fill="#F1C40F" stroke="#333333" stroke-width="0.573" stroke-linecap="round" stroke-linejoin="round" d="M-459.2,1061.3
		c-42.8-0.3-79.4-11.7-87.2-13.5l5.6,8.8c13.7,5.8,49.4,14.3,81.9,13.4c32.5-0.9,60.9-3.5,80.9-13.2l5.8-9.2
		C-385.7,1054-432.2,1061.3-459.2,1061.3"/>
	<path fill="#F1C40F" stroke="#333333" stroke-width="0.55" stroke-linecap="round" stroke-linejoin="round" d="M-375.7,1054.7
		c-0.9,1.3-1.7,2.6-2.6,3.8c-9.4,3.3-24.3,6.8-30.6,7.8c-12.8,2.6-32.7,4.6-50.3,4.6c-37.9-0.6-68.9-8-83.5-14.3l-1.2-2l0.2-0.3
		l2,0.8c25.9,9.3,55.1,13,82.7,13.7c17.5,0.1,35.1-2,49.3-4.5c21.8-4.4,30.6-7.7,33.3-9.1L-375.7,1054.7L-375.7,1054.7
		L-375.7,1054.7z M-370.7,1046.4C-370.7,1046.5-370.6,1046.5-370.7,1046.4c-0.6,1.2-1.2,2.2-1.9,3.3c-5,1.8-18.7,5.8-38.7,8.6
		c-13.1,1.8-21.3,3.5-47.5,4c-49-1.2-80.7-10.8-88.3-13.2l-1.1-2.1c28.4,7.4,57.4,12.6,89.4,13.1c23.9-0.5,34.1-2.3,47.2-4
		c23.3-3.6,35-7.4,38.5-8.6c0-0.1-0.1-0.1-0.2-0.2L-370.7,1046.4L-370.7,1046.4L-370.7,1046.4z"/>
	<path fill="#F1C40F" stroke="#333333" stroke-width="0.573" stroke-linecap="round" stroke-linejoin="round" d="M-370.2,998.8
		c0.1,28.1-14.3,53.4-25.9,64.5c-16.4,15.8-38.2,25.9-63.6,26.4c-28.4,0.5-55.1-18-62.3-26.1c-14-15.9-25.4-36.1-25.8-63.2
		c1.7-30.7,13.8-52.1,31.3-66.8c17.5-14.7,40.7-21.8,60.1-21.3c22.4,0.6,48.5,11.6,66.5,33.3C-378,959.8-372.9,975.3-370.2,998.8
		L-370.2,998.8z M-459.4,902.4c54.5,0,99.3,44.3,99.3,98.7c0,54.4-44.8,98.7-99.3,98.7s-98.9-44.3-98.9-98.7
		S-513.8,902.4-459.4,902.4"/>
	<path fill="#F1C40F" stroke="#333333" stroke-width="0.573" stroke-linecap="round" stroke-linejoin="round" d="M-459.1,902.1
		c54.5,0,99,44.5,99,99c0,54.5-44.5,99-99,99c-54.5,0-99-44.5-99-99C-558.1,946.6-513.6,902.1-459.1,902.1L-459.1,902.1z
		 M-555.9,1001.1c0,53.3,43.7,96.8,96.8,96.8c53.1,0,96.8-43.6,96.8-96.8c0-53.3-43.7-96.8-96.8-96.8S-555.9,947.8-555.9,1001.1
		L-555.9,1001.1z"/>
	<path fill="#F1C40F" stroke="#333333" stroke-width="0.573" stroke-linecap="round" stroke-linejoin="round" d="M-459,910.3
		c49.7,0,90.7,40.8,90.7,90.7c0,49.9-41,90.7-90.7,90.7s-90.7-40.8-90.7-90.7C-549.7,951.1-508.7,910.3-459,910.3L-459,910.3z
		 M-547.5,1001c0,48.7,40,88.5,88.5,88.5s88.5-39.8,88.5-88.5c0-48.7-40-88.5-88.5-88.5C-507.5,912.5-547.5,952.3-547.5,1001
		L-547.5,1001z"/>
	<path fill="#F1C40F" stroke="#333333" stroke-width="0.573" stroke-linecap="round" stroke-linejoin="round" d="M-455,901.7h-8.5
		l0,199h8.5L-455,901.7z"/>
	<path fill="#F1C40F" stroke="#333333" stroke-width="0.573" stroke-linecap="round" stroke-linejoin="round" d="M-455.9,900.5h2.2
		l0,201.2h-2.2L-455.9,900.5L-455.9,900.5z M-464.3,900.5h2.2l0,201.3h-2.2L-464.3,900.5L-464.3,900.5z"/>
	<path fill="#F1C40F" stroke="#333333" stroke-width="0.573" stroke-linecap="round" stroke-linejoin="round" d="M-360,1004.9v-7.4
		l-6-5.6l-34-9l-49-5l-59,3l-42,10l-8.5,6.3v7.4l21.5-9.6l51-8h49l36,4l25,6L-360,1004.9z"/>
	<path fill="#F1C40F" stroke="#333333" stroke-width="0.573" stroke-linecap="round" stroke-linejoin="round" d="M-459,985.8
		c23.4,0,46.1,2.2,64.1,5.7c18.6,3.7,31.6,8.4,36.1,13.6l0,2.6c-5.4-6.5-23-11.2-36.5-14c-17.9-3.5-40.4-5.7-63.6-5.7
		c-24.5,0-47.4,2.4-65,5.8c-14.1,2.8-33,8.4-35.3,13.9v-2.7c1.3-3.8,15.3-9.5,35-13.4C-506.6,988.1-483.7,985.8-459,985.8
		L-459,985.8z M-459,977.3c23.4,0,46.1,2.2,64.1,5.7c18.6,3.7,31.6,8.4,36.1,13.6l0,2.6c-5.4-6.5-23-11.2-36.5-14
		c-17.9-3.5-40.4-5.7-63.6-5.7c-24.5,0-47.3,2.4-64.9,5.8c-13.6,2.6-33.2,8.4-35.4,13.9v-2.7c1.3-3.8,15.6-9.6,35-13.4
		C-506.6,979.6-483.7,977.3-459,977.3L-459,977.3z"/>
	<path fill="#F1C40F" stroke="#333333" stroke-width="0.573" stroke-linecap="round" stroke-linejoin="round" d="M-459.5,934
		c36.8-0.2,69,5.2,83.7,12.7l5.4,9.3c-12.8-6.9-47.5-14-89-13c-33.9,0.2-70,3.7-88.2,13.4l6.4-10.7
		C-526.3,937.9-491.2,934-459.5,934"/>
	<path fill="#F1C40F" stroke="#333333" stroke-width="0.573" stroke-linecap="round" stroke-linejoin="round" d="M-459,941.6
		c21-0.1,41.3,1.1,57.5,4c15,2.8,29.4,7,31.4,9.3l1.6,2.8c-5-3.3-17.4-6.9-33.3-9.9c-16-3-36.3-4-57.2-4c-23.7-0.1-42.2,1.2-58,3.9
		c-16.7,3.1-28.3,7.6-31.2,9.7l1.6-3c5.6-2.8,14.4-6.3,29.2-8.9C-501.1,942.6-482.5,941.7-459,941.6L-459,941.6L-459,941.6z
		 M-459,933.1c20.1-0.1,40,1.1,55.5,3.9c12.2,2.4,24.3,6.1,28.7,9.4l2.3,3.7c-4-4.4-18.8-8.6-32-10.9c-15.4-2.6-34.4-3.7-54.5-3.9
		c-21.1,0.1-40.6,1.4-55.8,4.1c-14.4,2.7-23.8,6-27.7,8.5l2-3.1c5.4-2.9,14.2-5.5,25.3-7.6C-499.9,934.5-480.3,933.2-459,933.1
		L-459,933.1z"/>
	<path fill="#F1C40F" stroke="#333333" stroke-width="0.573" stroke-linecap="round" stroke-linejoin="round" d="M-409.9,1042.3
		c-18.2-3.4-36.5-3.9-49.2-3.7c-61.4,0.7-81.2,12.6-83.7,16.2l-4.6-7.5c15.6-11.3,49.1-17.7,88.6-17c20.5,0.3,38.2,1.7,53.1,4.6
		L-409.9,1042.3"/>
	<path fill="#F1C40F" stroke="#333333" stroke-width="0.55" stroke-linecap="round" stroke-linejoin="round" d="M-459.4,1037.5
		c17.1,0.3,33.8,1,50,4l-1.2,2.1c-15-2.8-31.1-3.8-48.8-3.8c-22.7-0.2-45.6,1.9-65.5,7.7c-6.3,1.8-16.7,5.8-17.8,9.1l-1.2-1.9
		c0.3-2,6.6-6.1,18.4-9.4C-502.6,1038.7-481.2,1037.6-459.4,1037.5L-459.4,1037.5L-459.4,1037.5z M-458.6,1028.9
		c17.7,0.3,36,1.1,53.7,4.7l-1.2,2.2c-16-3.2-31.4-4.2-52.4-4.6c-22.7,0-46.9,1.7-68.8,8c-7.1,2.1-19.3,6.5-19.7,10.1l-1.2-2.1
		c0.3-3.2,10.8-7.4,20.4-10.2C-505.7,1030.6-481.6,1028.9-458.6,1028.9L-458.6,1028.9z"/>
	<path fill="#F1C40F" stroke="#333333" stroke-width="0.573" stroke-linecap="round" stroke-linejoin="round" d="M-371.4,1048.4
		l-7.4,11.4L-400,1041l-55-37l-62-34l-32.2-11l6.9-12.7l2.3-1.3l20,5l66,34l38,24l32,23l13,15L-371.4,1048.4z"/>
	<path fill="#F1C40F" stroke="#333333" stroke-width="0.573" stroke-linecap="round" stroke-linejoin="round" d="M-550.3,959.3
		c5.6-3.8,47.1,14.7,90.6,40.8c43.3,26.3,84.7,55.9,80.9,61.5l-1.2,1.9l-0.6,0.4c0.1-0.1,0.7-0.8-0.1-2.9
		c-1.8-6.1-31.2-29.5-79.9-58.9c-47.5-28.3-87-45.4-91-40.5L-550.3,959.3L-550.3,959.3L-550.3,959.3z M-369.9,1048.2
		c3.6-7.1-34.9-36-82.6-64.3c-48.8-27.7-84-44-90.4-39.1l-1.4,2.6c0,0.1,0.1-0.2,0.4-0.4c1.2-1,3.1-1,4-1
		c11.1,0.2,42.7,14.7,87,40.1c19.4,11.3,82.1,51.5,81.8,62.8c0,1,0.1,1.2-0.3,1.7L-369.9,1048.2L-369.9,1048.2L-369.9,1048.2z"/>
</g>
<g>
	<path fill="#ECF0F1" d="M-518.4,1012c0,16.3,6.7,31,17.5,41.7c10.8,10.8,25.5,17.6,41.8,17.6c16.4,0,31.2-6.7,42-17.4
		c10.8-10.7,17.4-25.6,17.4-41.9h0v-79.2l-118.7-0.1L-518.4,1012L-518.4,1012L-518.4,1012z"/>
	<path fill="#E74C3C" d="M-516.2,1012.1L-516.2,1012.1c0,15.6,6.4,29.8,16.8,40.1c10.4,10.3,24.6,16.7,40.2,16.7
		c15.7,0,29.9-6.4,40.2-16.6c10.3-10.3,16.7-24.4,16.7-40h0v-76.8l-113.8,0L-516.2,1012.1 M-425.2,958.4l0,48.9l0,5.2h0
		c0,1.4-0.1,2.9-0.2,4.2c-0.9,7.7-4.5,14.5-9.7,19.7c-6.2,6.1-14.7,9.9-24,9.9c-9.3,0-17.6-3.9-23.8-10.1c-6.3-6.3-10-15-10-23.9
		l0-54L-425.2,958.4L-425.2,958.4L-425.2,958.4z"/>
</g>
<g id="castle_4_">
	<path fill="#F1C40F" d="M-417.7,1001.7c0.1-5.5,4.1-6.8,4.1-6.8c0,0,4.2,1.4,4.2,6.9L-417.7,1001.7"/>
	<path fill="#F1C40F" stroke="#333333" stroke-width="0.5" d="M-421,995l-0.7,6.3l4.1,0c0-5.2,4-6.1,4.1-6.1c0.1,0,4,1.2,4.1,6.1
		h4.2l-0.7-6.4L-421,995L-421,995L-421,995z"/>
	<path fill="#F1C40F" stroke="#333333" stroke-width="0.5" d="M-422,1001.4h16.9c0.4,0,0.6,0.4,0.6,0.8c0,0.4-0.3,0.8-0.6,0.8H-422
		c-0.4,0-0.6-0.4-0.6-0.8C-422.7,1001.7-422.4,1001.4-422,1001.4z"/>
	<path fill="#F1C40F" stroke="#333333" stroke-width="0.5" d="M-415.8,1001.3c0-3.3,2.3-4.3,2.3-4.2c0,0,2.3,1,2.4,4.2H-415.8"/>
	<path fill="#F1C40F" stroke="#333333" stroke-width="0.5" d="M-421.6,992.4h16.2c0.3,0,0.6,0.3,0.6,0.7c0,0.4-0.3,0.7-0.6,0.7
		h-16.2c-0.3,0-0.6-0.3-0.6-0.7C-422.3,992.7-422,992.4-421.6,992.4z"/>
	<path fill="#F1C40F" stroke="#333333" stroke-width="0.5" d="M-421.3,993.8h15.5c0.3,0,0.6,0.3,0.6,0.7c0,0.4-0.3,0.7-0.6,0.7
		h-15.5c-0.3,0-0.6-0.3-0.6-0.7C-421.9,994.1-421.6,993.8-421.3,993.8z"/>
	<path fill="#F1C40F" stroke="#333333" stroke-width="0.5" d="M-416.3,983.2l1.2,0v0.9h0.9v-0.9l1.3,0v0.9h0.9v-0.9h1.3l0,2
		c0,0.3-0.3,0.5-0.5,0.5h-4.4c-0.3,0-0.6-0.2-0.6-0.5L-416.3,983.2L-416.3,983.2L-416.3,983.2z"/>
	<path fill="#F1C40F" stroke="#333333" stroke-width="0.5" d="M-411.7,985.9l0.3,6.5l-4.3,0l0.3-6.5L-411.7,985.9"/>
	<path id="cp1_9_" fill="#F1C40F" stroke="#333333" stroke-width="0.5" d="M-416.9,988.9l0.1,3.5l-4.1,0l0.1-3.5L-416.9,988.9
		L-416.9,988.9L-416.9,988.9z"/>
	<g>
		<path id="cp1_8_" fill="#F1C40F" stroke="#333333" stroke-width="0.5" d="M-406.3,988.9l0.1,3.5l-4.1,0l0.1-3.5L-406.3,988.9
			L-406.3,988.9L-406.3,988.9z"/>
	</g>
	<path id="cp2_9_" fill="#F1C40F" stroke="#333333" stroke-width="0.5" d="M-421.6,986.4l1.2,0v0.9h0.9v-0.9l1.2,0v0.9h0.9v-0.9
		l1.2,0l0,2c0,0.3-0.2,0.5-0.5,0.5h-4.3c-0.3,0-0.6-0.2-0.6-0.5L-421.6,986.4L-421.6,986.4L-421.6,986.4z"/>
	<g>
		<path id="cp2_8_" fill="#F1C40F" stroke="#333333" stroke-width="0.5" d="M-410.9,986.4l1.2,0v0.9h0.9v-0.9l1.2,0v0.9h0.9v-0.9
			l1.2,0l0,2c0,0.3-0.2,0.5-0.5,0.5h-4.3c-0.3,0-0.6-0.2-0.6-0.5L-410.9,986.4L-410.9,986.4L-410.9,986.4z"/>
	</g>
	<path fill="#333333" d="M-414,987.9c0-0.6,0.9-0.6,0.9,0v1.5h-0.9V987.9"/>
	<path id="cp3_9_" fill="#333333" d="M-419.3,990.2c0-0.6,0.8-0.6,0.8,0v1.2h-0.8L-419.3,990.2"/>
	<g>
		<path id="cp3_8_" fill="#333333" d="M-408.6,990.2c0-0.6,0.8-0.6,0.8,0v1.2h-0.8L-408.6,990.2"/>
	</g>
</g>
<g id="castle_5_">
	<path fill="#F1C40F" d="M-417.7,955.4c0.1-5.5,4.1-6.8,4.1-6.8c0,0,4.2,1.4,4.2,6.9L-417.7,955.4"/>
	<path fill="#F1C40F" stroke="#333333" stroke-width="0.5" d="M-421,948.7l-0.7,6.3l4.1,0c0-5.2,4-6.1,4.1-6.1c0.1,0,4,1.2,4.1,6.1
		h4.2l-0.7-6.4L-421,948.7L-421,948.7L-421,948.7z"/>
	<path fill="#F1C40F" stroke="#333333" stroke-width="0.5" d="M-422,955.1h16.9c0.4,0,0.6,0.4,0.6,0.8c0,0.4-0.3,0.8-0.6,0.8H-422
		c-0.4,0-0.6-0.4-0.6-0.8C-422.7,955.4-422.4,955.1-422,955.1z"/>
	<path fill="#F1C40F" stroke="#333333" stroke-width="0.5" d="M-415.8,955c0-3.3,2.3-4.3,2.3-4.2c0,0,2.3,1,2.4,4.2H-415.8"/>
	<path fill="#F1C40F" stroke="#333333" stroke-width="0.5" d="M-421.6,946h16.2c0.3,0,0.6,0.3,0.6,0.7c0,0.4-0.3,0.7-0.6,0.7h-16.2
		c-0.3,0-0.6-0.3-0.6-0.7C-422.3,946.4-422,946-421.6,946z"/>
	<path fill="#F1C40F" stroke="#333333" stroke-width="0.5" d="M-421.3,947.5h15.5c0.3,0,0.6,0.3,0.6,0.7c0,0.4-0.3,0.7-0.6,0.7
		h-15.5c-0.3,0-0.6-0.3-0.6-0.7C-421.9,947.8-421.6,947.5-421.3,947.5z"/>
	<path fill="#F1C40F" stroke="#333333" stroke-width="0.5" d="M-416.3,936.9l1.2,0v0.9h0.9v-0.9l1.3,0v0.9h0.9v-0.9h1.3l0,2
		c0,0.3-0.3,0.5-0.5,0.5h-4.4c-0.3,0-0.6-0.2-0.6-0.5L-416.3,936.9L-416.3,936.9L-416.3,936.9z"/>
	<path fill="#F1C40F" stroke="#333333" stroke-width="0.5" d="M-411.7,939.6l0.3,6.5l-4.3,0l0.3-6.5L-411.7,939.6"/>
	<path id="cp1_11_" fill="#F1C40F" stroke="#333333" stroke-width="0.5" d="M-416.9,942.6l0.1,3.5l-4.1,0l0.1-3.5L-416.9,942.6
		L-416.9,942.6L-416.9,942.6z"/>
	<g>
		<path id="cp1_10_" fill="#F1C40F" stroke="#333333" stroke-width="0.5" d="M-406.3,942.6l0.1,3.5l-4.1,0l0.1-3.5L-406.3,942.6
			L-406.3,942.6L-406.3,942.6z"/>
	</g>
	<path id="cp2_11_" fill="#F1C40F" stroke="#333333" stroke-width="0.5" d="M-421.6,940l1.2,0v0.9h0.9V940l1.2,0v0.9h0.9V940l1.2,0
		l0,2c0,0.3-0.2,0.5-0.5,0.5h-4.3c-0.3,0-0.6-0.2-0.6-0.5L-421.6,940L-421.6,940L-421.6,940z"/>
	<g>
		<path id="cp2_10_" fill="#F1C40F" stroke="#333333" stroke-width="0.5" d="M-410.9,940l1.2,0v0.9h0.9V940l1.2,0v0.9h0.9V940l1.2,0
			l0,2c0,0.3-0.2,0.5-0.5,0.5h-4.3c-0.3,0-0.6-0.2-0.6-0.5L-410.9,940L-410.9,940L-410.9,940z"/>
	</g>
	<path fill="#333333" d="M-414,941.6c0-0.6,0.9-0.6,0.9,0v1.5h-0.9V941.6"/>
	<path id="cp3_11_" fill="#333333" d="M-419.3,943.8c0-0.6,0.8-0.6,0.8,0v1.2h-0.8L-419.3,943.8"/>
	<g>
		<path id="cp3_10_" fill="#333333" d="M-408.6,943.8c0-0.6,0.8-0.6,0.8,0v1.2h-0.8L-408.6,943.8"/>
	</g>
</g>
<g id="castle_3_">
	<path fill="#F1C40F" d="M-463.1,955.4c0.1-5.5,4.1-6.8,4.1-6.8c0,0,4.2,1.4,4.2,6.9L-463.1,955.4"/>
	<path fill="#F1C40F" stroke="#333333" stroke-width="0.5" d="M-466.5,948.7l-0.7,6.3l4.1,0c0-5.2,4-6.1,4.1-6.1
		c0.1,0,4,1.2,4.1,6.1h4.2l-0.7-6.4L-466.5,948.7L-466.5,948.7L-466.5,948.7z"/>
	<path fill="#F1C40F" stroke="#333333" stroke-width="0.5" d="M-467.4,955.1h16.9c0.4,0,0.6,0.4,0.6,0.8c0,0.4-0.3,0.8-0.6,0.8
		h-16.9c-0.4,0-0.6-0.4-0.6-0.8C-468.1,955.4-467.8,955.1-467.4,955.1z"/>
	<path fill="#F1C40F" stroke="#333333" stroke-width="0.5" d="M-461.3,955c0-3.3,2.3-4.3,2.3-4.2c0,0,2.3,1,2.4,4.2H-461.3"/>
	<path fill="#F1C40F" stroke="#333333" stroke-width="0.5" d="M-467.1,946h16.2c0.3,0,0.6,0.3,0.6,0.7c0,0.4-0.3,0.7-0.6,0.7h-16.2
		c-0.3,0-0.6-0.3-0.6-0.7C-467.7,946.4-467.4,946-467.1,946z"/>
	<path fill="#F1C40F" stroke="#333333" stroke-width="0.5" d="M-466.7,947.5h15.5c0.3,0,0.6,0.3,0.6,0.7c0,0.4-0.3,0.7-0.6,0.7
		h-15.5c-0.3,0-0.6-0.3-0.6-0.7C-467.3,947.8-467.1,947.5-466.7,947.5z"/>
	<path fill="#F1C40F" stroke="#333333" stroke-width="0.5" d="M-461.7,936.9l1.2,0v0.9h0.9v-0.9l1.3,0v0.9h0.9v-0.9h1.3l0,2
		c0,0.3-0.3,0.5-0.5,0.5h-4.4c-0.3,0-0.6-0.2-0.6-0.5L-461.7,936.9L-461.7,936.9L-461.7,936.9z"/>
	<path fill="#F1C40F" stroke="#333333" stroke-width="0.5" d="M-457.1,939.6l0.3,6.5l-4.3,0l0.3-6.5L-457.1,939.6"/>
	<path id="cp1_7_" fill="#F1C40F" stroke="#333333" stroke-width="0.5" d="M-462.3,942.6l0.1,3.5l-4.1,0l0.1-3.5L-462.3,942.6
		L-462.3,942.6L-462.3,942.6z"/>
	<g>
		<path id="cp1_6_" fill="#F1C40F" stroke="#333333" stroke-width="0.5" d="M-451.7,942.6l0.1,3.5l-4.1,0l0.1-3.5L-451.7,942.6
			L-451.7,942.6L-451.7,942.6z"/>
	</g>
	<path id="cp2_7_" fill="#F1C40F" stroke="#333333" stroke-width="0.5" d="M-467,940l1.2,0v0.9h0.9V940l1.2,0v0.9h0.9V940l1.2,0l0,2
		c0,0.3-0.2,0.5-0.5,0.5h-4.3c-0.3,0-0.6-0.2-0.6-0.5L-467,940L-467,940L-467,940z"/>
	<g>
		<path id="cp2_6_" fill="#F1C40F" stroke="#333333" stroke-width="0.5" d="M-456.4,940l1.2,0v0.9h0.9V940l1.2,0v0.9h0.9V940l1.2,0
			l0,2c0,0.3-0.2,0.5-0.5,0.5h-4.3c-0.3,0-0.6-0.2-0.6-0.5L-456.4,940L-456.4,940L-456.4,940z"/>
	</g>
	<path fill="#333333" d="M-459.4,941.6c0-0.6,0.9-0.6,0.9,0v1.5h-0.9L-459.4,941.6"/>
	<path id="cp3_7_" fill="#333333" d="M-464.7,943.8c0-0.6,0.8-0.6,0.8,0v1.2h-0.8L-464.7,943.8"/>
	<g>
		<path id="cp3_6_" fill="#333333" d="M-454.1,943.8c0-0.6,0.8-0.6,0.8,0v1.2h-0.8L-454.1,943.8"/>
	</g>
</g>
<g id="castle_7_">
	<path fill="#F1C40F" d="M-508.8,955.4c0.1-5.5,4.1-6.8,4.1-6.8c0,0,4.2,1.4,4.2,6.9L-508.8,955.4"/>
	<path fill="#F1C40F" stroke="#333333" stroke-width="0.5" d="M-512.2,948.7l-0.7,6.3l4.1,0c0-5.2,4-6.1,4.1-6.1
		c0.1,0,4,1.2,4.1,6.1h4.2l-0.7-6.4L-512.2,948.7L-512.2,948.7L-512.2,948.7z"/>
	<path fill="#F1C40F" stroke="#333333" stroke-width="0.5" d="M-513.2,955.1h16.9c0.4,0,0.6,0.4,0.6,0.8c0,0.4-0.3,0.8-0.6,0.8
		h-16.9c-0.4,0-0.6-0.4-0.6-0.8C-513.8,955.4-513.5,955.1-513.2,955.1z"/>
	<path fill="#F1C40F" stroke="#333333" stroke-width="0.5" d="M-507,955c0-3.3,2.3-4.3,2.3-4.2c0,0,2.3,1,2.4,4.2H-507"/>
	<path fill="#F1C40F" stroke="#333333" stroke-width="0.5" d="M-512.8,946h16.2c0.3,0,0.6,0.3,0.6,0.7c0,0.4-0.3,0.7-0.6,0.7h-16.2
		c-0.3,0-0.6-0.3-0.6-0.7C-513.4,946.4-513.1,946-512.8,946z"/>
	<path fill="#F1C40F" stroke="#333333" stroke-width="0.5" d="M-512.5,947.5h15.5c0.3,0,0.6,0.3,0.6,0.7c0,0.4-0.3,0.7-0.6,0.7
		h-15.5c-0.3,0-0.6-0.3-0.6-0.7C-513,947.8-512.8,947.5-512.5,947.5z"/>
	<path fill="#F1C40F" stroke="#333333" stroke-width="0.5" d="M-507.4,936.9l1.2,0v0.9h0.9v-0.9l1.3,0v0.9h0.9v-0.9h1.3l0,2
		c0,0.3-0.3,0.5-0.5,0.5h-4.4c-0.3,0-0.6-0.2-0.6-0.5L-507.4,936.9L-507.4,936.9L-507.4,936.9z"/>
	<path fill="#F1C40F" stroke="#333333" stroke-width="0.5" d="M-502.8,939.6l0.3,6.5l-4.3,0l0.3-6.5L-502.8,939.6"/>
	<path id="cp1_15_" fill="#F1C40F" stroke="#333333" stroke-width="0.5" d="M-508.1,942.6l0.1,3.5l-4.1,0l0.1-3.5L-508.1,942.6
		L-508.1,942.6L-508.1,942.6z"/>
	<g>
		<path id="cp1_14_" fill="#F1C40F" stroke="#333333" stroke-width="0.5" d="M-497.5,942.6l0.1,3.5l-4.1,0l0.1-3.5L-497.5,942.6
			L-497.5,942.6L-497.5,942.6z"/>
	</g>
	<path id="cp2_15_" fill="#F1C40F" stroke="#333333" stroke-width="0.5" d="M-512.7,940l1.2,0v0.9h0.9V940l1.2,0v0.9h0.9V940l1.2,0
		l0,2c0,0.3-0.2,0.5-0.5,0.5h-4.3c-0.3,0-0.6-0.2-0.6-0.5L-512.7,940L-512.7,940L-512.7,940z"/>
	<g>
		<path id="cp2_14_" fill="#F1C40F" stroke="#333333" stroke-width="0.5" d="M-502.1,940l1.2,0v0.9h0.9V940l1.2,0v0.9h0.9V940l1.2,0
			l0,2c0,0.3-0.2,0.5-0.5,0.5h-4.3c-0.3,0-0.6-0.2-0.6-0.5L-502.1,940L-502.1,940L-502.1,940z"/>
	</g>
	<path fill="#333333" d="M-505.1,941.6c0-0.6,0.9-0.6,0.9,0v1.5h-0.9L-505.1,941.6"/>
	<path id="cp3_15_" fill="#333333" d="M-510.4,943.8c0-0.6,0.8-0.6,0.8,0v1.2h-0.8L-510.4,943.8"/>
	<g>
		<path id="cp3_14_" fill="#333333" d="M-499.8,943.8c0-0.6,0.8-0.6,0.8,0v1.2h-0.8L-499.8,943.8"/>
	</g>
</g>
<g id="castle_8_">
	<path fill="#F1C40F" d="M-508.8,1001.7c0.1-5.5,4.1-6.8,4.1-6.8c0,0,4.2,1.4,4.2,6.9L-508.8,1001.7"/>
	<path fill="#F1C40F" stroke="#333333" stroke-width="0.5" d="M-512.2,995l-0.7,6.3l4.1,0c0-5.2,4-6.1,4.1-6.1c0.1,0,4,1.2,4.1,6.1
		h4.2l-0.7-6.4L-512.2,995L-512.2,995L-512.2,995z"/>
	<path fill="#F1C40F" stroke="#333333" stroke-width="0.5" d="M-513.2,1001.4h16.9c0.4,0,0.6,0.4,0.6,0.8c0,0.4-0.3,0.8-0.6,0.8
		h-16.9c-0.4,0-0.6-0.4-0.6-0.8C-513.8,1001.7-513.5,1001.4-513.2,1001.4z"/>
	<path fill="#F1C40F" stroke="#333333" stroke-width="0.5" d="M-507,1001.3c0-3.3,2.3-4.3,2.3-4.2c0,0,2.3,1,2.4,4.2H-507"/>
	<path fill="#F1C40F" stroke="#333333" stroke-width="0.5" d="M-512.8,992.4h16.2c0.3,0,0.6,0.3,0.6,0.7c0,0.4-0.3,0.7-0.6,0.7
		h-16.2c-0.3,0-0.6-0.3-0.6-0.7C-513.4,992.7-513.1,992.4-512.8,992.4z"/>
	<path fill="#F1C40F" stroke="#333333" stroke-width="0.5" d="M-512.5,993.8h15.5c0.3,0,0.6,0.3,0.6,0.7c0,0.4-0.3,0.7-0.6,0.7
		h-15.5c-0.3,0-0.6-0.3-0.6-0.7C-513,994.1-512.8,993.8-512.5,993.8z"/>
	<path fill="#F1C40F" stroke="#333333" stroke-width="0.5" d="M-507.4,983.2l1.2,0v0.9h0.9v-0.9l1.3,0v0.9h0.9v-0.9h1.3l0,2
		c0,0.3-0.3,0.5-0.5,0.5h-4.4c-0.3,0-0.6-0.2-0.6-0.5L-507.4,983.2L-507.4,983.2L-507.4,983.2z"/>
	<path fill="#F1C40F" stroke="#333333" stroke-width="0.5" d="M-502.8,985.9l0.3,6.5l-4.3,0l0.3-6.5L-502.8,985.9"/>
	<path id="cp1_16_" fill="#F1C40F" stroke="#333333" stroke-width="0.5" d="M-508.1,988.9l0.1,3.5l-4.1,0l0.1-3.5L-508.1,988.9
		L-508.1,988.9L-508.1,988.9z"/>
	<g>
		<path id="cp1_1_" fill="#F1C40F" stroke="#333333" stroke-width="0.5" d="M-497.5,988.9l0.1,3.5l-4.1,0l0.1-3.5L-497.5,988.9
			L-497.5,988.9L-497.5,988.9z"/>
	</g>
	<path id="cp2_16_" fill="#F1C40F" stroke="#333333" stroke-width="0.5" d="M-512.7,986.4l1.2,0v0.9h0.9v-0.9l1.2,0v0.9h0.9v-0.9
		l1.2,0l0,2c0,0.3-0.2,0.5-0.5,0.5h-4.3c-0.3,0-0.6-0.2-0.6-0.5L-512.7,986.4L-512.7,986.4L-512.7,986.4z"/>
	<g>
		<path id="cp2_1_" fill="#F1C40F" stroke="#333333" stroke-width="0.5" d="M-502.1,986.4l1.2,0v0.9h0.9v-0.9l1.2,0v0.9h0.9v-0.9
			l1.2,0l0,2c0,0.3-0.2,0.5-0.5,0.5h-4.3c-0.3,0-0.6-0.2-0.6-0.5L-502.1,986.4L-502.1,986.4L-502.1,986.4z"/>
	</g>
	<path fill="#333333" d="M-505.1,987.9c0-0.6,0.9-0.6,0.9,0v1.5h-0.9L-505.1,987.9"/>
	<path id="cp3_16_" fill="#333333" d="M-510.4,990.2c0-0.6,0.8-0.6,0.8,0v1.2h-0.8L-510.4,990.2"/>
	<g>
		<path id="cp3_1_" fill="#333333" d="M-499.8,990.2c0-0.6,0.8-0.6,0.8,0v1.2h-0.8L-499.8,990.2"/>
	</g>
</g>
<g id="castle_1_">
	<path fill="#F1C40F" d="M-490.8,1050c-3.8-4-2-7.7-2-7.7c0,0,4-2,7.9,1.9L-490.8,1050"/>
	<path fill="#F1C40F" stroke="#333333" stroke-width="0.5" d="M-497.9,1047.6l4,5l2.9-2.9c-3.7-3.7-1.5-7.1-1.4-7.2
		c0.1-0.1,3.6-2,7.2,1.4l2.9-2.9l-5.1-4L-497.9,1047.6L-497.9,1047.6L-497.9,1047.6z"/>
	<path fill="#F1C40F" stroke="#333333" stroke-width="0.5" d="M-494.1,1052.8l12-12c0.3-0.3,0.7-0.2,1,0.1c0.3,0.3,0.3,0.8,0.1,1
		l-12,12c-0.3,0.3-0.7,0.2-1-0.1C-494.3,1053.5-494.4,1053-494.1,1052.8z"/>
	<path fill="#F1C40F" stroke="#333333" stroke-width="0.5" d="M-489.8,1048.4c-2.3-2.4-1.4-4.6-1.4-4.6c0,0,2.3-1,4.7,1.3
		L-489.8,1048.4"/>
	<path fill="#F1C40F" stroke="#333333" stroke-width="0.5" d="M-500.2,1046.2l11.5-11.5c0.2-0.2,0.7-0.2,0.9,0.1
		c0.3,0.3,0.3,0.7,0.1,0.9l-11.5,11.5c-0.2,0.2-0.7,0.2-0.9-0.1C-500.4,1046.8-500.5,1046.4-500.2,1046.2z"/>
	<path fill="#F1C40F" stroke="#333333" stroke-width="0.5" d="M-499,1046.9l11-11c0.2-0.2,0.6-0.2,0.9,0.1c0.3,0.3,0.3,0.7,0.1,0.9
		l-11,11c-0.2,0.2-0.6,0.2-0.9-0.1C-499.2,1047.6-499.2,1047.1-499,1046.9z"/>
	<path fill="#F1C40F" stroke="#333333" stroke-width="0.5" d="M-502.9,1035.9l0.9-0.9l0.6,0.6l0.6-0.6l-0.6-0.6l0.9-0.9l0.6,0.6
		l0.6-0.6l-0.6-0.6l0.9-0.9l1.4,1.4c0.2,0.2,0.2,0.5,0,0.8l-3.1,3.1c-0.2,0.2-0.6,0.2-0.8,0L-502.9,1035.9L-502.9,1035.9
		L-502.9,1035.9z"/>
	<path fill="#F1C40F" stroke="#333333" stroke-width="0.5" d="M-497.7,1034.5l4.8,4.4l-3.1,3l-4.4-4.8L-497.7,1034.5"/>
	<path id="cp1_3_" fill="#F1C40F" stroke="#333333" stroke-width="0.5" d="M-499.3,1040.3l2.6,2.4l-2.9,2.9l-2.4-2.5L-499.3,1040.3
		L-499.3,1040.3L-499.3,1040.3z"/>
	<g>
		<path id="cp1_2_" fill="#F1C40F" stroke="#333333" stroke-width="0.5" d="M-491.8,1032.8l2.6,2.4l-2.9,2.9l-2.4-2.5L-491.8,1032.8
			L-491.8,1032.8L-491.8,1032.8z"/>
	</g>
	<path id="cp2_3_" fill="#F1C40F" stroke="#333333" stroke-width="0.5" d="M-504.4,1041.8l0.9-0.8l0.6,0.6l0.6-0.6l-0.6-0.6l0.9-0.9
		l0.6,0.6l0.6-0.6l-0.6-0.6l0.9-0.9l1.4,1.4c0.2,0.2,0.2,0.5,0,0.7l-3.1,3.1c-0.2,0.2-0.6,0.2-0.8,0L-504.4,1041.8L-504.4,1041.8
		L-504.4,1041.8z"/>
	<g>
		<path id="cp2_2_" fill="#F1C40F" stroke="#333333" stroke-width="0.5" d="M-496.9,1034.3l0.9-0.8l0.6,0.6l0.6-0.6l-0.6-0.6
			l0.9-0.9l0.6,0.6l0.6-0.6l-0.6-0.6l0.9-0.9l1.4,1.4c0.2,0.2,0.2,0.5,0,0.7l-3.1,3.1c-0.2,0.2-0.6,0.2-0.8,0L-496.9,1034.3
			L-496.9,1034.3L-496.9,1034.3z"/>
	</g>
	<path fill="#333333" d="M-497.9,1037.6c-0.5-0.4,0.2-1.1,0.6-0.6l1.1,1.1l-0.6,0.6L-497.9,1037.6"/>
	<path id="cp3_3_" fill="#333333" d="M-500.1,1042.9c-0.4-0.4,0.2-1,0.6-0.6l0.8,0.8l-0.6,0.6L-500.1,1042.9"/>
	<g>
		<path id="cp3_2_" fill="#333333" d="M-492.6,1035.4c-0.4-0.4,0.2-1,0.6-0.6l0.8,0.8l-0.6,0.6L-492.6,1035.4"/>
	</g>
</g>
<g id="castle_2_">
	<path fill="#F1C40F" d="M-433.3,1044.1c4-3.8,7.7-2,7.7-2c0,0,2,4-1.9,7.9L-433.3,1044.1"/>
	<path fill="#F1C40F" stroke="#333333" stroke-width="0.5" d="M-430.9,1037l-5,4l2.9,2.9c3.7-3.7,7.1-1.5,7.2-1.4
		c0.1,0.1,2,3.6-1.4,7.2l2.9,2.9l4-5.1L-430.9,1037L-430.9,1037L-430.9,1037z"/>
	<path fill="#F1C40F" stroke="#333333" stroke-width="0.5" d="M-436.1,1040.8l12,12c0.3,0.3,0.2,0.7-0.1,1c-0.3,0.3-0.8,0.3-1,0.1
		l-12-12c-0.3-0.3-0.2-0.7,0.1-1C-436.8,1040.6-436.3,1040.5-436.1,1040.8z"/>
	<path fill="#F1C40F" stroke="#333333" stroke-width="0.5" d="M-431.7,1045.1c2.4-2.3,4.6-1.4,4.6-1.4c0,0,1,2.3-1.3,4.7
		L-431.7,1045.1"/>
	<path fill="#F1C40F" stroke="#333333" stroke-width="0.5" d="M-429.5,1034.7l11.5,11.5c0.2,0.2,0.2,0.7-0.1,0.9
		c-0.3,0.3-0.7,0.3-0.9,0.1l-11.5-11.5c-0.2-0.2-0.2-0.7,0.1-0.9C-430.1,1034.5-429.7,1034.4-429.5,1034.7z"/>
	<path fill="#F1C40F" stroke="#333333" stroke-width="0.5" d="M-430.2,1035.9l11,11c0.2,0.2,0.2,0.6-0.1,0.9
		c-0.3,0.3-0.7,0.3-0.9,0.1l-11-11c-0.2-0.2-0.2-0.6,0.1-0.9C-430.9,1035.7-430.4,1035.7-430.2,1035.9z"/>
	<path fill="#F1C40F" stroke="#333333" stroke-width="0.5" d="M-419.2,1032l0.9,0.9l-0.6,0.6l0.6,0.6l0.6-0.6l0.9,0.9l-0.6,0.6
		l0.6,0.6l0.6-0.6l0.9,0.9l-1.4,1.4c-0.2,0.2-0.5,0.2-0.8,0l-3.1-3.1c-0.2-0.2-0.2-0.6,0-0.8L-419.2,1032L-419.2,1032L-419.2,1032z"
		/>
	<path fill="#F1C40F" stroke="#333333" stroke-width="0.5" d="M-417.8,1037.2l-4.4,4.8l-3-3.1l4.8-4.4L-417.8,1037.2"/>
	<path id="cp1_5_" fill="#F1C40F" stroke="#333333" stroke-width="0.5" d="M-423.6,1035.6l-2.4,2.6l-2.9-2.9l2.5-2.4L-423.6,1035.6
		L-423.6,1035.6L-423.6,1035.6z"/>
	<g>
		<path id="cp1_4_" fill="#F1C40F" stroke="#333333" stroke-width="0.5" d="M-416.1,1043.1l-2.4,2.6l-2.9-2.9l2.5-2.4L-416.1,1043.1
			L-416.1,1043.1L-416.1,1043.1z"/>
	</g>
	<path id="cp2_5_" fill="#F1C40F" stroke="#333333" stroke-width="0.5" d="M-425.1,1030.5l0.8,0.9l-0.6,0.6l0.6,0.6l0.6-0.6l0.9,0.9
		l-0.6,0.6l0.6,0.6l0.6-0.6l0.9,0.9l-1.4,1.4c-0.2,0.2-0.5,0.2-0.7,0l-3.1-3.1c-0.2-0.2-0.2-0.6,0-0.8L-425.1,1030.5L-425.1,1030.5
		L-425.1,1030.5z"/>
	<g>
		<path id="cp2_4_" fill="#F1C40F" stroke="#333333" stroke-width="0.5" d="M-417.6,1038l0.8,0.9l-0.6,0.6l0.6,0.6l0.6-0.6l0.9,0.9
			l-0.6,0.6l0.6,0.6l0.6-0.6l0.9,0.9l-1.4,1.4c-0.2,0.2-0.5,0.2-0.7,0l-3.1-3.1c-0.2-0.2-0.2-0.6,0-0.8L-417.6,1038L-417.6,1038
			L-417.6,1038z"/>
	</g>
	<path fill="#333333" d="M-420.9,1037c0.4-0.5,1.1,0.2,0.6,0.6l-1.1,1.1l-0.6-0.6L-420.9,1037"/>
	<path id="cp3_5_" fill="#333333" d="M-426.2,1034.8c0.4-0.4,1,0.2,0.6,0.6l-0.8,0.8l-0.6-0.6L-426.2,1034.8"/>
	<g>
		<path id="cp3_4_" fill="#333333" d="M-418.7,1042.3c0.4-0.4,1,0.2,0.6,0.6l-0.8,0.8l-0.6-0.6L-418.7,1042.3"/>
	</g>
</g>
<g id="quina_5_">
	<path fill="#336699" d="M-466.4,977.4L-466.4,977.4c0,2.2,0.8,4.2,2.2,5.7c1.4,1.5,3.2,2.4,5.3,2.4c2.1,0,3.9-0.9,5.3-2.4
		c1.4-1.5,2.2-3.5,2.2-5.7v-10.8l-15,0L-466.4,977.4"/>
	<circle fill="#ECF0F1" cx="-462.9" cy="970.7" r="1.5"/>
	<circle fill="#ECF0F1" cx="-454.6" cy="970.7" r="1.5"/>
	<circle fill="#ECF0F1" cx="-458.8" cy="974.7" r="1.5"/>
	<circle fill="#ECF0F1" cx="-462.9" cy="978.9" r="1.5"/>
	<circle fill="#ECF0F1" cx="-454.6" cy="978.9" r="1.5"/>
</g>
<g id="quina_6_">
	<path fill="#336699" d="M-466.4,1003.4L-466.4,1003.4c0,2.2,0.8,4.2,2.2,5.7c1.4,1.5,3.2,2.4,5.3,2.4c2.1,0,3.9-0.9,5.3-2.4
		c1.4-1.5,2.2-3.5,2.2-5.7v-10.8l-15,0L-466.4,1003.4"/>
	<circle fill="#ECF0F1" cx="-462.9" cy="996.7" r="1.5"/>
	<circle fill="#ECF0F1" cx="-454.6" cy="996.7" r="1.5"/>
	<circle fill="#ECF0F1" cx="-458.8" cy="1000.7" r="1.5"/>
	<circle fill="#ECF0F1" cx="-462.9" cy="1004.9" r="1.5"/>
	<circle fill="#ECF0F1" cx="-454.6" cy="1004.9" r="1.5"/>
</g>
<g id="quina_9_">
	<path fill="#336699" d="M-466.4,1029.1L-466.4,1029.1c0,2.2,0.8,4.2,2.2,5.7c1.4,1.5,3.2,2.4,5.3,2.4c2.1,0,3.9-0.9,5.3-2.4
		c1.4-1.5,2.2-3.5,2.2-5.7v-10.8l-15,0L-466.4,1029.1"/>
	<circle fill="#ECF0F1" cx="-462.9" cy="1022.5" r="1.5"/>
	<circle fill="#ECF0F1" cx="-454.6" cy="1022.5" r="1.5"/>
	<circle fill="#ECF0F1" cx="-458.8" cy="1026.5" r="1.5"/>
	<circle fill="#ECF0F1" cx="-462.9" cy="1030.7" r="1.5"/>
	<circle fill="#ECF0F1" cx="-454.6" cy="1030.6" r="1.5"/>
</g>
<g id="quina_7_">
	<path fill="#336699" d="M-445.6,1003.4L-445.6,1003.4c0,2.2,0.8,4.2,2.2,5.7c1.4,1.5,3.2,2.4,5.3,2.4c2.1,0,3.9-0.9,5.3-2.4
		c1.4-1.5,2.2-3.5,2.2-5.7v-10.8l-15,0L-445.6,1003.4"/>
	<circle fill="#ECF0F1" cx="-442.2" cy="996.7" r="1.5"/>
	<circle fill="#ECF0F1" cx="-433.9" cy="996.7" r="1.5"/>
	<circle fill="#ECF0F1" cx="-438" cy="1000.7" r="1.5"/>
	<circle fill="#ECF0F1" cx="-442.2" cy="1004.9" r="1.5"/>
	<circle fill="#ECF0F1" cx="-433.9" cy="1004.9" r="1.5"/>
</g>
<g id="quina_8_">
	<path fill="#336699" d="M-487.2,1003.4L-487.2,1003.4c0,2.2,0.8,4.2,2.2,5.7c1.4,1.5,3.2,2.4,5.3,2.4c2.1,0,3.9-0.9,5.3-2.4
		c1.4-1.5,2.2-3.5,2.2-5.7v-10.8l-15,0L-487.2,1003.4"/>
	<circle fill="#ECF0F1" cx="-483.8" cy="996.7" r="1.5"/>
	<circle fill="#ECF0F1" cx="-475.5" cy="996.7" r="1.5"/>
	<circle fill="#ECF0F1" cx="-479.6" cy="1000.7" r="1.5"/>
	<circle fill="#ECF0F1" cx="-483.8" cy="1004.9" r="1.5"/>
	<circle fill="#ECF0F1" cx="-475.5" cy="1004.9" r="1.5"/>
</g>
</svg>
