<?xml version="1.0" encoding="utf-8"?>
<!-- Generator: Adobe Illustrator 18.1.1, SVG Export Plug-In . SVG Version: 6.00 Build 0)  -->
<svg version="1.1"
	 id="svg3036" xmlns:rdf="http://www.w3.org/1999/02/22-rdf-syntax-ns#" xmlns:cc="http://creativecommons.org/ns#" xmlns:dc="http://purl.org/dc/elements/1.1/" xmlns:svg="http://www.w3.org/2000/svg"
	 xmlns="http://www.w3.org/2000/svg" xmlns:xlink="http://www.w3.org/1999/xlink" x="0px" y="0px" width="275px" height="180px"
	 viewBox="-862 911 275 180" enable-background="new -862 911 275 180" xml:space="preserve">
<g id="layer1">
	<rect id="rect3220" x="-862" y="910.9" fill="#ECF0F1" width="273.2" height="179.2"/>
</g>
<g id="layer3">
	<path id="path3048" fill="#339966" d="M-781.7,1020.1c0,0-0.5,3.9,1.2,5.8c1.6,1.8,5.5,3.9,6.9,4.2c1.4,0.2-1.6-5.1-1.6-5.1
		S-779.6,1019.4-781.7,1020.1z"/>
	<path id="path3050" fill="#339966" d="M-781,1030c0,0,0.5,3.7,3,4.2c2.5,0.5,4.8,0.2,4.8,0.2S-773.2,1030.2-781,1030z"/>
	<path id="path3052" fill="#339966" d="M-772.7,1022.4c0,0,2.5,0.9,2.5,3.2c0,2.3-0.2,4.6-0.2,4.6s-1.8-2.3-1.8-3.5
		C-772.2,1025.6-772.7,1022.4-772.7,1022.4z"/>
	<path id="path3054" fill="#339966" d="M-773.6,1036.3c0,0-0.3,2.3,2.3,2.3C-768.7,1038.6-771,1035.6-773.6,1036.3z"/>
	<path id="path3056" fill="#339966" d="M-773.8,1039.9c0,0,2.8-0.8,6-0.2c3.3,0.7,4.9,3.1,4.9,3.1s-3.4,1-7.3,0
		C-774.1,1041.8-773.8,1039.9-773.8,1039.9z"/>
	<path id="path3060" fill="#339966" d="M-772,1031.7c0,0,3.9-1.1,7.7,7.3C-764.3,1039-771.5,1037.3-772,1031.7z"/>
	<path id="path3062" fill="#339966" d="M-767.9,1029.9c0,0,4.4-2.4,8,9C-759.9,1038.9-765,1036.9-767.9,1029.9z"/>
	<path id="path3064" fill="#339966" d="M-762,1040.5c0,0,4.4-1.6,10.1,5.1C-761.2,1045.2-762,1040.5-762,1040.5z"/>
	<path id="path3054-9" fill="#339966" d="M-759.1,1037.4c0,0-0.2,2.6,1.5,2.6S-757.4,1036.7-759.1,1037.4z"/>
	<path id="path3054-9-4" fill="#339966" d="M-762.3,1044.1c0,0-0.2,2.2,1.2,2.2S-760.9,1043.4-762.3,1044.1z"/>
	<path id="path3054-9-7" fill="#339966" d="M-748.8,1051c0,0-0.2,2.6,1.5,2.6C-745.6,1053.6-747.1,1050.3-748.8,1051z"/>
	<path id="path3054-9-71" fill="#339966" d="M-744.7,1043.4c0,0-0.2,2.6,1.5,2.6S-743,1042.6-744.7,1043.4z"/>
	<path id="path3127" fill="#339966" d="M-755.5,1038.9c0,0,6.2-1.6,8.8,6.2C-754.2,1043.9-755.5,1038.9-755.5,1038.9z"/>
	<path id="path3129" fill="#339966" d="M-761.1,1047.5c0,0,7-1.8,10.3,0.7C-747.5,1050.6-757,1051.6-761.1,1047.5z"/>
	<path id="path3131" fill="#339966" d="M-748.8,1047.7c0,0,4.7-2.3,10,2.8C-748.7,1051.8-748.8,1047.7-748.8,1047.7z"/>
	<path id="path3133" fill="#339966" d="M-740.8,1044.6c0,0,4.7-1.5,9.3,7.2C-741.8,1050.3-740.8,1044.6-740.8,1044.6z"/>
	<path id="path3135" fill="#339966" d="M-732.7,1054.1c0,0-5.2,3.6-11.7-0.2C-744.4,1053.9-742.3,1049.5-732.7,1054.1z"/>
	<path id="path3048-1" fill="#339966" d="M-670.1,1020c0,0,0.5,3.9-1.2,5.8c-1.6,1.8-5.5,3.9-6.9,4.2c-1.4,0.2,1.6-5.1,1.6-5.1
		S-672.2,1019.3-670.1,1020z"/>
	<path id="path3050-1" fill="#339966" d="M-670.8,1029.9c0,0-0.5,3.7-3,4.2s-4.8,0.2-4.8,0.2S-678.6,1030.1-670.8,1029.9z"/>
	<path id="path3052-6" fill="#339966" d="M-679.1,1022.3c0,0-2.5,0.9-2.5,3.2c0,2.3,0.2,4.6,0.2,4.6s1.8-2.3,1.8-3.5
		C-679.6,1025.5-679.1,1022.3-679.1,1022.3z"/>
	<path id="path3054-3" fill="#339966" d="M-678.2,1036.2c0,0,0.3,2.3-2.3,2.3S-680.8,1035.5-678.2,1036.2z"/>
	<path id="path3056-5" fill="#339966" d="M-678,1039.8c0,0-2.8-0.8-6-0.2c-3.3,0.7-4.9,3.1-4.9,3.1s3.4,1,7.3,0
		C-677.7,1041.7-678,1039.8-678,1039.8L-678,1039.8z"/>
	<path id="path3060-7" fill="#339966" d="M-679.8,1031.6c0,0-3.9-1.1-7.7,7.3C-687.5,1039-680.3,1037.2-679.8,1031.6z"/>
	<path id="path3062-6" fill="#339966" d="M-683.9,1029.8c0,0-4.4-2.4-8,9C-691.9,1038.8-686.8,1036.8-683.9,1029.8z"/>
	<path id="path3064-8" fill="#339966" d="M-689.8,1040.4c0,0-4.4-1.6-10.1,5.1C-690.6,1045.2-689.8,1040.4-689.8,1040.4z"/>
	<path id="path3054-9-2" fill="#339966" d="M-692.7,1037.3c0,0,0.2,2.6-1.5,2.6C-695.9,1039.9-694.4,1036.6-692.7,1037.3z"/>
	<path id="path3054-9-4-1" fill="#339966" d="M-689.5,1044c0,0,0.2,2.2-1.2,2.2C-692,1046.3-690.9,1043.4-689.5,1044z"/>
	<path id="path3054-9-7-1" fill="#339966" d="M-703,1050.9c0,0,0.2,2.6-1.5,2.6C-706.2,1053.5-704.7,1050.2-703,1050.9z"/>
	<path id="path3054-9-71-4" fill="#339966" d="M-707.1,1043.3c0,0,0.2,2.6-1.5,2.6C-710.3,1045.9-708.8,1042.5-707.1,1043.3z"/>
	<path id="path3127-3" fill="#339966" d="M-696.3,1038.8c0,0-6.2-1.6-8.8,6.2C-697.6,1043.9-696.3,1038.8-696.3,1038.8z"/>
	<path id="path3129-0" fill="#339966" d="M-690.7,1047.4c0,0-7-1.8-10.3,0.7C-704.3,1050.5-694.8,1051.5-690.7,1047.4z"/>
	<path id="path3131-7" fill="#339966" d="M-703,1047.6c0,0-4.7-2.3-10,2.8C-703.1,1051.7-703,1047.6-703,1047.6z"/>
	<path id="path3133-1" fill="#339966" d="M-711,1044.5c0,0-4.7-1.5-9.3,7.2C-710,1050.2-711,1044.5-711,1044.5z"/>
	<path id="path3135-1" fill="#339966" d="M-719.1,1054c0,0,5.2,3.6,11.7-0.2C-707.4,1053.8-709.5,1049.4-719.1,1054z"/>
	<path id="path3203" fill="#339966" d="M-726.9,1056.1c0,0-3.6,4.8-3.6,4.4s-2.5-2.5-2.5-2.5l4.4-3.2l-1.7-0.8l0.9-1l3.2,1.4"/>
	<path id="path3203-2" fill="#339966" d="M-725.9,1056.1c0,0,3.6,4.8,3.6,4.4s2.5-2.5,2.5-2.5l-4.4-3.2l1.7-0.8l-0.9-1l-3.2,1.4"/>
	<path id="path3223" fill="#339966" d="M-727.1,1056.3h1.5"/>
	<path id="path3993" fill="#F39C12" d="M-791.8,979.2c0,0,1.8,4.8,3.9,4.8c2.1,0,7.6,0.5,7.6,0.5s2.8-0.5,3.7-3
		c0.9-2.5,3.5-13.2,16.2-6.7s13.4-11.1,13.4-11.1l-2.1-3l0.5-5.8c0,0,6.9,4.8,11.3,4.6c4.4-0.2,7.6,1.4,9,1.4c1.4,0,5.8,1.4,5.8,1.4
		l11.3,0.5c0,0,1.8-1.6,3.7-1.4c1.8,0.2,1.8-1.2,5.3-1.2c3.5,0,6.9-4.4,6.9-4.4s0.9-0.9,6,0c0,0,3.5-2.8,8.5-4.4
		c5.1-1.6,4.4-3.7,4.4-3.7s3.7-0.7,5.3-0.5c1.6,0.2,2.5-2.8,2.5-2.8l3.9-0.5l1.6-2.3l3.9-0.7c0,0,4.6-3.2,5.3-5.3
		c0.7-2.1,6-0.5,6-0.5s2.3-2.1,2.5-3.2s2.3-0.2,2.3-0.2l-0.2,3.7l-2.5,1.4v2.3h-3.9l-0.2,2.3l-3.2,0.2l-0.5,2.8l-0.7,1.2l-0.9,0.5
		h-2.3l-0.9,1.4l-2.3,1.6l-1.6,2.1l-3.2-0.2l-2.1,2.8l-1.4-0.2l-2.1,3.5l-1.6,2.1l-0.9,1.4l-1.6,0.5l-0.5,1.8l-2.8,0.7l-3.7,0.9
		l-1.4,1.6c0,0-3.9,7.8,0.2,10.6c4.2,2.8,4.4,5.8,4.4,5.8l2.1,1.4l1.6,2.8l0.7,3.2c0,0-0.7,0.5-1.6,0.2s-2.5-0.5-2.5-0.5l-1.8-1.6
		l-3.5-0.2l-1.8,2.1c0,0-0.9,1.4-0.9,2.3c0,0.9-0.5,0.7-1.6,0s-3-1.8-3-1.8l-2.5-0.7l-0.2-1.2l-1.6,0.9c0,0-0.5,1.4-1.4,0.9
		s-1.8-0.5-1.8-0.5h-1.6c0,0-3.7,2.8-3.2,11.8l-4.2,0.7l-2.1,1.8l-1.2,1.2h-3l-1.6,1.4l-3,1.2l-1.4,1.8l-3.7,0.2l-1.6,1.2l-0.7,1.6
		l-2.5-1.6l-3.5-0.9l-3,0.7c0,0-0.9,0.2-1.8,0.9s-3.5,1.2-3.5,1.2s-1.6,0.5-1.6,1.4s-0.5,2.5-0.5,2.5v3.5c0,0-0.5,2.3-2.3,2.3
		c-1.8,0-1.4,0-2.3-0.2c-0.9-0.2-0.7-2.3-0.7-2.3v-2.5l-3.7-3.5l-2.3-0.9l-2.5,0.2l-2.3,1.4l-2.1,1.4c0,0,0.5,1.6-1.2,0.5
		c-1.6-1.2-2.8-1.6-2.8-1.6l-2.1-1.2l-2.8-0.7l-2.1-2.5l-5.3-0.2l-4.6-5.3l-1.4-1.4l-0.2-4.2l-3-0.5v-2.3l-1.2-2.3l0.5-4.2l-2.8-1.2
		l-1.2-3.9L-791.8,979.2z"/>
</g>
</svg>
