<?xml version="1.0" encoding="utf-8"?>
<!-- Generator: Adobe Illustrator 18.1.1, SVG Export Plug-In . SVG Version: 6.00 Build 0)  -->
<svg version="1.1" id="Layer_1" xmlns="http://www.w3.org/2000/svg" xmlns:xlink="http://www.w3.org/1999/xlink" x="0px" y="0px"
	 width="900px" height="600px" viewBox="-549 701 900 600" enable-background="new -549 701 900 600" xml:space="preserve">
<title>Flag of Slovakia</title>
<rect x="-549" y="701" fill="#C0392B" width="900" height="600"/>
<rect x="-549" y="701" fill="#205484" width="900" height="400"/>
<rect x="-549" y="701" fill="#ECF0F1" width="900" height="200"/>
<g>
	<path fill="#ECF0F1" d="M-232.7,1164.5c-53.8-25.9-130.7-77.3-130.7-179c0-101.7,4.9-148,4.9-148h125.8h125.9c0,0,4.9,46.3,4.9,148
		C-102,1087.2-179,1138.6-232.7,1164.5z"/>
	<path fill="#C0392B" d="M-232.7,1151c-49.3-23.8-119.9-70.9-119.9-164.3c0-93.3,4.5-135.7,4.5-135.7h115.5h115.5
		c0,0,4.5,42.4,4.5,135.7C-112.8,1080.1-183.4,1127.2-232.7,1151L-232.7,1151z"/>
	<path fill="#ECF0F1" d="M-222.2,962.3c13.4,0.2,39.4,0.7,62.6-7c0,0-0.6,8.3-0.6,18c0,9.7,0.6,18,0.6,18
		c-21.3-7.1-47.6-7.3-62.6-7.1v51.5h-21.1v-51.5c-15.1-0.2-41.3,0-62.6,7.1c0,0,0.6-8.3,0.6-18c0-9.7-0.6-18-0.6-18
		c23.2,7.8,49.3,7.2,62.6,7v-32.4c-12.2-0.1-29.7,0.5-49.6,7.1c0,0,0.6-8.3,0.6-18c0-9.7-0.6-18-0.6-18c19.8,6.6,37.3,7.2,49.5,7.1
		c-0.6-20.5-6.6-46.3-6.6-46.3s12.3,1,17.2,1c4.9,0,17.2-1,17.2-1s-6,25.8-6.6,46.3c12.2,0.1,29.7-0.5,49.5-7.1c0,0-0.6,8.3-0.6,18
		c0,9.7,0.6,18,0.6,18c-19.8-6.6-37.4-7.2-49.6-7.1L-222.2,962.3L-222.2,962.3z"/>
	<path fill="#205484" d="M-232.8,1030.1c-24.8,0-38.2,34.5-38.2,34.5s-7.4-16.3-27.7-16.3c-13.7,0-23.8,12.2-30.2,23.5
		c25,39.7,64.8,64.2,96.1,79.3c31.3-15.1,71.1-39.6,96.1-79.3c-6.4-11.3-16.5-23.5-30.2-23.5c-20.3,0-27.7,16.3-27.7,16.3
		S-207.9,1030.1-232.8,1030.1L-232.8,1030.1z"/>
</g>
</svg>
