<?xml version="1.0" encoding="utf-8"?>
<!-- Generator: Adobe Illustrator 18.1.1, SVG Export Plug-In . SVG Version: 6.00 Build 0)  -->
<svg version="1.1" id="Layer_1" xmlns="http://www.w3.org/2000/svg" xmlns:xlink="http://www.w3.org/1999/xlink" x="0px" y="0px"
	 width="1200px" height="600px" viewBox="0 0 1200 600" enable-background="new 0 0 1200 600" xml:space="preserve">
<rect fill="#E74C3C" width="1200" height="600"/>
<rect fill="#205484" width="1200" height="400"/>
<rect fill="#ECF0F1" width="1200" height="200"/>
<g transform="translate(2.2238 1) scale(.12937)">
	<path fill="#205484" d="M2853,1620l48.7-718.7c-379.7-180-820.2-180-1200,0l48.7,718.7c21.9,323,241.4,598.6,551.3,692.2
		C2611.6,2218.6,2831.2,1943,2853,1620"/>
	<path fill="#ECF0F1" d="M1851.8,1717.4c52.2,234.8,222.6,425.6,450,503.8c227.4-78.3,397.8-269.1,450-503.8l-225-300l-90,120
		l-135-270l-135,270l-90-120L1851.8,1717.4"/>
	<g id="wave" transform="scale(5) translate(0 5.1962)">
		<path fill="#205484" d="M374.4,353.3c8.3,14.3,26.6,19.3,41,11l0,0c9.3-5.4,20.7-5.4,30,0c9.3,5.4,20.7,5.4,30,0
			c9.3-5.4,20.7-5.4,30,0c14.3,8.3,32.7,3.4,41-11l0,0v8.7c-8.3,14.3-26.6,19.3-41,11c0,0,0,0,0,0c-9.3-5.4-20.7-5.4-30,0
			c-9.3,5.4-20.7,5.4-30,0c-9.3-5.4-20.7-5.4-30,0c-14.3,8.3-32.7,3.4-41-11l0,0V353.3z"/>
	</g>
	<g transform="translate(0 17.321)">
		<g id="wave_1_" transform="scale(5) translate(0 5.1962)">
			<path fill="#205484" d="M374.4,370.6c8.3,14.3,26.6,19.3,41,11l0,0c9.3-5.4,20.7-5.4,30,0c9.3,5.4,20.7,5.4,30,0
				c9.3-5.4,20.7-5.4,30,0c14.3,8.3,32.7,3.4,41-11l0,0v8.7c-8.3,14.3-26.6,19.3-41,11l0,0c-9.3-5.4-20.7-5.4-30,0
				c-9.3,5.4-20.7,5.4-30,0c-9.3-5.4-20.7-5.4-30,0c-14.3,8.3-32.7,3.4-41-11l0,0V370.6z"/>
		</g>
	</g>
	<g id="s" transform="translate(0,-120) scale(2.25)">
		<path fill="#F1C40F" d="M1023,525l5,16.3l16.7-3.8L1033,550l11.7,12.5l-16.7-3.8l-5,16.3l-5-16.3l-16.7,3.8L1013,550l-11.7-12.5
			l16.7,3.8L1023,525z"/>
	</g>
	<g transform="translate(-33.75,-45)">
		<g id="s_1_" transform="translate(0,-120) scale(2.25)">
			<path fill="#F1C40F" d="M948,425l5,16.3l16.7-3.8L958,450l11.7,12.5l-16.7-3.8l-5,16.3l-5-16.3l-16.7,3.8L938,450l-11.7-12.5
				l16.7,3.8L948,425z"/>
		</g>
	</g>
	<g transform="translate(33.75,-45)">
		<g id="s_2_" transform="translate(0,-120) scale(2.25)">
			<path fill="#F1C40F" d="M1098,425l5,16.3l16.7-3.8L1108,450l11.7,12.5l-16.7-3.8l-5,16.3l-5-16.3l-16.7,3.8L1088,450l-11.7-12.5
				l16.7,3.8L1098,425z"/>
		</g>
	</g>
	<path fill="#E74C3C" d="M1743.9,882.2l49.8,734.9c20.4,300.2,221.7,557.6,508.1,649.7c286.4-92.1,487.7-349.6,508.1-649.7
		l49.8-734.9c13.9,6.6,28,13,42.1,19.1L2853,1620c-21.9,323-241.4,598.6-551.3,692.2c-309.9-93.6-529.4-369.3-551.3-692.2
		l-48.7-718.7C1715.9,895.1,1729.9,888.8,1743.9,882.2"/>
</g>
</svg>
