<?xml version="1.0" encoding="utf-8"?>
<!-- Generator: Adobe Illustrator 18.1.1, SVG Export Plug-In . SVG Version: 6.00 Build 0)  -->
<svg version="1.1" id="Layer_1" xmlns="http://www.w3.org/2000/svg" xmlns:xlink="http://www.w3.org/1999/xlink" x="0px" y="0px"
	 width="900px" height="600px" viewBox="-549 701 900 600" enable-background="new -549 701 900 600" xml:space="preserve">
<rect x="-549" y="701" fill="#C0392B" width="900" height="600"/>
<rect x="-549" y="701" fill="#ECF0F1" width="450" height="600"/>
<g>
	<path fill="#C0392B" d="M-526.8,783.8v45.5h45.5c0,7.6,7.6,15.2,15.2,15.2v45.5h45.5v-45.5c7.6,0,15.2-7.6,15.2-15.2h45.5v-45.5
		h-45.5c0-7.6-7.6-15.2-15.2-15.2v-45.5h-45.5v45.5c-7.6,0-15.2,7.6-15.2,15.2H-526.8z"/>
	<path fill="#96877D" d="M-523.7,786.9v39.4h45.5c0,7.6,7.6,15.1,15.2,15.1v45.5h39.4v-45.5c7.6,0,15.2-7.6,15.2-15.2h45.5v-39.4
		h-45.5c0-7.6-7.6-15.2-15.2-15.2v-45.5h-39.4v45.5c-7.6,0-15.2,7.6-15.2,15.2H-523.7z"/>
	<path fill="#CCCCCC" d="M-522.2,788.4v36.4h45.5c0,7.6,7.6,15.2,15.2,15.2v45.5h36.4v-45.5c7.6,0,15.2-7.6,15.2-15.2h45.5v-36.4
		h-45.5c0-7.6-7.6-15.1-15.2-15.1v-45.5h-36.4v45.5c-7.6,0-15.2,7.6-15.2,15.1H-522.2z"/>
	<g id="vi">
		<path fill="#96877D" d="M-464.5,772.7c2.7,2.7,1.9,7.7-1.6,11.2c-3.6,3.6-8.6,4.3-11.2,1.6c-2.7-2.7-1.9-7.7,1.6-11.2
			C-472.2,770.7-467.1,770-464.5,772.7z"/>
		<path fill="#D0D0D0" d="M-477.9,780.7l1.1-1.1l4.3,2.1l-2.1-4.3l1.1-1.1l4.3,8.6L-477.9,780.7L-477.9,780.7z"/>
		<path fill="#D0D0D0" d="M-471.4,774.3l1.1-1.1l6.4,6.4l-1.1,1.1L-471.4,774.3z"/>
	</g>
	<g transform="rotate(90,105.555,105.557)">
		<g id="vi_1_">
			<path fill="#96877D" d="M-409.6,785.5c-2.7,2.7-7.7,1.9-11.2-1.6c-3.6-3.6-4.3-8.6-1.6-11.2c2.7-2.7,7.7-1.9,11.2,1.6
				C-407.6,777.8-406.9,782.9-409.6,785.5z"/>
			<path fill="#D0D0D0" d="M-417.6,772.1l1.1,1.1l-2.1,4.3l4.3-2.1l1.1,1.1l-8.6,4.3L-417.6,772.1L-417.6,772.1z"/>
			<path fill="#D0D0D0" d="M-411.2,778.6l1.1,1.1l-6.4,6.4l-1.1-1.1L-411.2,778.6z"/>
		</g>
	</g>
	<g transform="rotate(180,105.555,105.557)">
		<g id="vi_2_">
			<path fill="#96877D" d="M-422.4,840.4c-2.7-2.7-1.9-7.7,1.6-11.2c3.6-3.6,8.6-4.3,11.2-1.6c2.7,2.7,1.9,7.7-1.6,11.2
				C-414.7,842.4-419.8,843.1-422.4,840.4z"/>
			<path fill="#D0D0D0" d="M-409,832.4l-1.1,1.1l-4.3-2.1l2.1,4.3l-1.1,1.1l-4.3-8.6L-409,832.4L-409,832.4z"/>
			<path fill="#D0D0D0" d="M-415.5,838.8l-1.1,1.1l-6.4-6.4l1.1-1.1L-415.5,838.8z"/>
		</g>
	</g>
	<g transform="rotate(270,105.555,105.557)">
		<g id="vi_3_">
			<path fill="#96877D" d="M-477.3,827.6c2.7-2.7,7.7-1.9,11.2,1.6c3.6,3.6,4.3,8.6,1.6,11.2c-2.7,2.7-7.7,1.9-11.2-1.6
				C-479.3,835.3-480,830.2-477.3,827.6z"/>
			<path fill="#D0D0D0" d="M-469.3,841l-1.1-1.1l2.1-4.3l-4.3,2.1l-1.1-1.1l8.6-4.3L-469.3,841L-469.3,841z"/>
			<path fill="#D0D0D0" d="M-475.7,834.5l-1.1-1.1l6.4-6.4l1.1,1.1L-475.7,834.5z"/>
		</g>
	</g>
	<g>
		<circle fill="none" stroke="#96877D" stroke-width="0.514" cx="-443.4" cy="806.6" r="31.8"/>
		<circle fill="none" stroke="#96877D" stroke-width="0.514" cx="-443.4" cy="806.6" r="24.2"/>
	</g>
	<g>
		<circle cx="-455.6" cy="832.3" r="1.5"/>
		<circle cx="-431.3" cy="832.3" r="1.5"/>
		<path d="M-444.5,832.3v1.6h-2c-2,0-2,1.6,0,1.6h2v1.6c0,1.6,1.8,1.8,1.9,0.1l0.1-1.7h2c2,0,2-1.6,0-1.6h-2v-1.6
			C-442.4,830.7-444.5,830.7-444.5,832.3L-444.5,832.3z"/>
		<path d="M-473,814.4l2.1-0.5l-0.2-1c-0.1-0.2-0.1-0.4-0.3-0.5c-0.1-0.1-0.3-0.1-0.6-0.1l0-0.1l1.8-0.4l0,0.1
			c-0.2,0.1-0.4,0.1-0.4,0.2s-0.1,0.2-0.2,0.3c0,0.1,0,0.2,0,0.4l0.2,1l1.7-0.4c0.3-0.1,0.4-0.1,0.5-0.2c0.1,0,0.1-0.1,0.1-0.2
			c0-0.1,0-0.3,0-0.4l0-0.2l0.1,0l0.5,2.3l-0.1,0l0-0.2c-0.1-0.2-0.2-0.4-0.3-0.4c-0.1,0-0.3,0-0.6,0l-3.4,0.8
			c-0.3,0.1-0.4,0.1-0.5,0.2c-0.1,0-0.1,0.1-0.1,0.2c0,0.1,0,0.3,0,0.4l0,0.2l-0.1,0l-0.9-3.9l1.2-0.3l0,0.1
			c-0.2,0.1-0.4,0.2-0.5,0.4s-0.2,0.2-0.2,0.4c0,0.1,0,0.4,0.1,0.6L-473,814.4L-473,814.4z M-474.4,805c0-0.7,0.3-1.3,0.9-1.8
			c0.6-0.5,1.2-0.7,2.1-0.7c0.8,0,1.5,0.3,2,0.9s0.8,1.2,0.7,1.9c0,0.7-0.3,1.4-0.9,1.8c-0.6,0.5-1.3,0.7-2.1,0.6
			c-0.9,0-1.6-0.4-2.1-1C-474.2,806.3-474.4,805.7-474.4,805L-474.4,805z M-474.1,805.1c0,0.5,0.1,0.9,0.5,1.2
			c0.4,0.4,1.1,0.6,1.9,0.7c0.9,0,1.6-0.1,2.1-0.5c0.4-0.3,0.6-0.6,0.6-1.1c0-0.5-0.1-0.9-0.5-1.3c-0.4-0.4-1-0.6-1.9-0.6
			c-0.9-0.1-1.6,0.1-2.1,0.4C-473.9,804.2-474.1,804.6-474.1,805.1L-474.1,805.1z M-466.2,795.1l-0.5,1.4l-3,0.8
			c0,0.1-0.1,0.2-0.1,0.3c0,0,0,0.1,0,0.1c0,0,0,0.1,0,0.1l1.5,0.6c0.3,0.1,0.5,0.2,0.6,0.1c0.1-0.1,0.3-0.2,0.3-0.4l0.1-0.2
			l0.1,0.1l-0.8,2.2l-0.1-0.1l0.1-0.2c0.1-0.2,0.1-0.4,0-0.5c-0.1-0.1-0.2-0.2-0.5-0.3l-3.3-1.3c-0.3-0.1-0.5-0.2-0.6-0.1
			c-0.1,0.1-0.3,0.2-0.3,0.4l-0.1,0.2l-0.1-0.1l0.7-1.9c0.2-0.5,0.4-0.9,0.6-1.2c0.2-0.2,0.4-0.4,0.7-0.5c0.3-0.1,0.6-0.1,0.9,0
			c0.3,0.1,0.5,0.3,0.7,0.6s0.2,0.7,0.1,1.1l1.9-0.5c0.4-0.1,0.7-0.2,0.9-0.4c0.2-0.1,0.3-0.3,0.5-0.6L-466.2,795.1L-466.2,795.1z
			 M-470.2,797.8c0,0,0-0.1,0-0.1c0,0,0-0.1,0-0.1c0.2-0.5,0.2-0.9,0.1-1.2c-0.1-0.3-0.3-0.6-0.7-0.7c-0.3-0.1-0.6-0.1-0.9,0
			c-0.3,0.1-0.5,0.3-0.6,0.7c-0.1,0.1-0.1,0.4-0.2,0.6L-470.2,797.8L-470.2,797.8z M-458.6,779.7l1.1,1.4l-0.1,0.1
			c-0.4-0.3-0.7-0.5-1-0.5c-0.4-0.1-0.9,0-1.3,0.3c-0.6,0.4-0.9,0.9-0.9,1.6c0,0.6,0.2,1.1,0.5,1.6c0.3,0.4,0.6,0.8,1,1
			s0.8,0.4,1.2,0.4c0.4,0,0.7-0.1,1-0.3c0.2-0.1,0.3-0.2,0.4-0.4c0.1-0.1,0.2-0.3,0.3-0.5l-0.9-1.3c-0.1-0.2-0.3-0.4-0.3-0.4
			c-0.1,0-0.2-0.1-0.3-0.1c-0.1,0-0.2,0.1-0.4,0.2l-0.1-0.1l1.8-1.1l0.1,0.1l-0.1,0.1c-0.2,0.1-0.3,0.2-0.2,0.4
			c0,0.1,0.1,0.3,0.3,0.5l0.9,1.4c-0.2,0.3-0.4,0.6-0.6,0.8s-0.5,0.4-0.8,0.6c-0.9,0.6-1.7,0.7-2.6,0.5c-0.6-0.2-1.1-0.6-1.5-1.1
			c-0.3-0.4-0.4-0.9-0.5-1.3c-0.1-0.6,0-1.1,0.3-1.6c0.2-0.4,0.5-0.8,1-1.1c0.2-0.1,0.3-0.2,0.5-0.3c0.2-0.1,0.4-0.1,0.7-0.2
			c0.2,0,0.3-0.1,0.3-0.1c0,0,0.1-0.1,0.1-0.1c0-0.1,0-0.1-0.1-0.3L-458.6,779.7L-458.6,779.7z M-449.7,780.3l-2,0.5l-0.1,0.9
			c0,0.2,0,0.4,0,0.5c0,0.1,0.1,0.1,0.2,0.2s0.3,0,0.5,0l0,0.1l-1.7,0.4l0-0.1c0.2-0.1,0.3-0.2,0.4-0.3c0.1-0.2,0.2-0.5,0.2-0.9
			l0.7-4.8l0.1,0l3,3.9c0.2,0.3,0.4,0.5,0.6,0.6c0.1,0.1,0.3,0.1,0.5,0l0,0.1l-2.1,0.6l0-0.1c0.2-0.1,0.3-0.1,0.4-0.2
			c0.1-0.1,0.1-0.2,0.1-0.2c0-0.1-0.1-0.3-0.3-0.5L-449.7,780.3L-449.7,780.3z M-449.9,780.1l-1.5-1.9l-0.4,2.4L-449.9,780.1
			L-449.9,780.1z M-440.3,780l0.1,0l-0.5,1.5l-4.2-0.2l0-0.1l0.2,0c0.2,0,0.4-0.1,0.5-0.2c0.1-0.1,0.1-0.3,0.1-0.6l0.1-3.5
			c0-0.3,0-0.6-0.1-0.6c-0.1-0.1-0.3-0.2-0.5-0.2l-0.2,0l0-0.1l2.5,0.1l0,0.1c-0.3,0-0.5,0-0.6,0.1c-0.1,0.1-0.2,0.1-0.2,0.2
			c0,0.1-0.1,0.3-0.1,0.6l-0.1,3.4c0,0.2,0,0.4,0,0.5c0,0.1,0.1,0.1,0.1,0.1c0.1,0,0.3,0.1,0.6,0.1l0.4,0c0.4,0,0.7,0,0.9-0.1
			c0.2-0.1,0.3-0.2,0.5-0.3C-440.6,780.6-440.4,780.4-440.3,780L-440.3,780z M-433,782l0.1,0.1l-0.9,1.3l-4-1.3l0-0.1l0.2,0.1
			c0.2,0.1,0.4,0.1,0.5-0.1c0.1-0.1,0.2-0.2,0.3-0.5l1.1-3.3c0.1-0.3,0.1-0.5,0.1-0.6c-0.1-0.1-0.2-0.2-0.4-0.3l-0.2-0.1l0-0.1
			l2.3,0.8l0,0.1c-0.3-0.1-0.5-0.1-0.6-0.1c-0.1,0-0.2,0.1-0.3,0.1c-0.1,0.1-0.2,0.3-0.3,0.6l-1.1,3.3c-0.1,0.2-0.1,0.4-0.1,0.5
			c0,0.1,0,0.1,0.1,0.2c0.1,0,0.2,0.1,0.6,0.2l0.4,0.1c0.4,0.1,0.7,0.2,0.9,0.2c0.2,0,0.4-0.1,0.5-0.2S-433.3,782.3-433,782
			L-433,782z M-427.2,785.1l-1.7-1.2l-0.8,0.5c-0.2,0.1-0.3,0.2-0.4,0.3c0,0.1-0.1,0.2,0,0.2c0,0.1,0.1,0.2,0.3,0.4l-0.1,0.1l-1.4-1
			l0.1-0.1c0.2,0.1,0.4,0.1,0.5,0.1c0.2,0,0.5-0.2,0.8-0.4l4.2-2.6l0.1,0.1l-1.1,4.8c-0.1,0.4-0.1,0.7-0.1,0.8
			c0,0.2,0.1,0.3,0.3,0.4l-0.1,0.1l-1.8-1.2l0.1-0.1c0.2,0.1,0.3,0.2,0.4,0.2c0.1,0,0.2,0,0.2-0.1c0.1-0.1,0.1-0.3,0.2-0.5
			L-427.2,785.1L-427.2,785.1z M-427.1,784.8l0.5-2.3l-2,1.2L-427.1,784.8L-427.1,784.8z M-420.6,786l0.9,1.2l-1.3,5.1l2.5-1.9
			c0.3-0.2,0.4-0.4,0.4-0.5c0-0.1,0-0.3-0.1-0.5l-0.1-0.2l0.1-0.1l1.1,1.5l-0.1,0.1l-0.1-0.2c-0.1-0.2-0.3-0.3-0.5-0.3
			c-0.1,0-0.3,0.1-0.5,0.3l-3.7,2.7l-0.1-0.1l1.4-5.5l-2.7,2c-0.3,0.2-0.4,0.4-0.4,0.5c0,0.1,0,0.3,0.1,0.5l0.1,0.2l-0.1,0.1
			l-1.1-1.5l0.1-0.1l0.1,0.2c0.1,0.2,0.3,0.3,0.5,0.3c0.1,0,0.3-0.1,0.5-0.3l3-2.3c0.1-0.2,0.1-0.4,0.1-0.5c0-0.1,0-0.2-0.1-0.4
			c0-0.1-0.1-0.2-0.2-0.3L-420.6,786L-420.6,786z M-413.8,798.6l-1.2,0.5l-0.1-0.1c0.2-0.1,0.3-0.2,0.4-0.3c0.1-0.1,0.2-0.3,0.2-0.4
			c0-0.2,0-0.3-0.1-0.6l-0.3-0.7l-3.9,1.4c-0.3,0.1-0.5,0.2-0.6,0.3c-0.1,0.1-0.1,0.3,0,0.5l0.1,0.2l-0.1,0l-0.8-2.2l0.1,0l0.1,0.2
			c0.1,0.2,0.2,0.3,0.4,0.4c0.1,0,0.3,0,0.6-0.1l3.9-1.4l-0.2-0.6c-0.1-0.2-0.2-0.4-0.2-0.5c-0.1-0.1-0.2-0.2-0.4-0.2
			c-0.2,0-0.4,0-0.6,0l-0.1-0.1l1.2-0.4L-413.8,798.6L-413.8,798.6z M-418.1,808.3l-0.1-1.5l2.4-2c0-0.1,0-0.2,0-0.3
			c0,0,0-0.1,0-0.1c0,0,0-0.1,0-0.1l-1.6,0.1c-0.3,0-0.6,0.1-0.6,0.1c-0.1,0.1-0.2,0.3-0.2,0.5l0,0.2l-0.1,0l-0.1-2.3l0.1,0l0,0.2
			c0,0.2,0.1,0.4,0.3,0.5c0.1,0.1,0.3,0.1,0.6,0.1l3.5-0.2c0.3,0,0.6-0.1,0.6-0.1c0.1-0.1,0.2-0.3,0.2-0.5l0-0.2l0.1,0l0.1,2
			c0,0.6,0,1-0.1,1.3s-0.2,0.5-0.4,0.7c-0.2,0.2-0.5,0.3-0.8,0.3c-0.3,0-0.6-0.1-0.9-0.3c-0.3-0.2-0.4-0.5-0.6-1l-1.5,1.2
			c-0.3,0.3-0.6,0.5-0.7,0.7c-0.1,0.2-0.2,0.4-0.2,0.7L-418.1,808.3L-418.1,808.3z M-415.5,804.3c0,0.1,0,0.1,0,0.1c0,0,0,0.1,0,0.1
			c0,0.5,0.2,0.9,0.4,1.2c0.2,0.3,0.5,0.4,0.9,0.4c0.3,0,0.6-0.1,0.8-0.4c0.2-0.2,0.3-0.5,0.3-0.9c0-0.2,0-0.4-0.1-0.6L-415.5,804.3
			L-415.5,804.3z M-414,815.5l-0.5,1.8l-0.1,0l0-0.1c0-0.1,0-0.2,0-0.3c0-0.1-0.1-0.3-0.2-0.4c-0.1-0.1-0.2-0.3-0.4-0.5l-1.7-1.8
			l-1.3-0.3c-0.3-0.1-0.5-0.1-0.6-0.1c-0.1,0.1-0.2,0.2-0.3,0.4l0,0.2l-0.1,0l0.6-2.2l0.1,0l0,0.2c-0.1,0.2,0,0.4,0.1,0.5
			c0.1,0.1,0.2,0.2,0.5,0.2l1.2,0.3l2.6-0.9c0.3-0.1,0.5-0.2,0.6-0.2c0.1,0,0.2-0.1,0.3-0.3c0,0,0.1-0.1,0.1-0.2l0.1,0l-0.6,2.3
			l-0.1,0l0-0.1c0-0.1,0-0.2,0-0.4c0-0.1-0.1-0.2-0.2-0.2c-0.1,0-0.3,0-0.6,0.1l-2,0.7l1.4,1.5c0.2,0.2,0.4,0.3,0.5,0.4
			c0.1,0,0.1,0,0.2,0c0.1,0,0.1-0.1,0.2-0.1c0.1-0.1,0.1-0.2,0.1-0.3L-414,815.5L-414,815.5z"/>
	</g>
	<g>
		<path fill="#96877D" stroke="#000000" stroke-width="0.203" d="M-426.1,811.2c0.5-0.1,1.4,0,1.4,0s0.1,0.4-0.2,0.5
			c0.3,0.1,1.2,0.1,1.2,0.1s-0.4,0.3-0.5,0.4c0.3,0,0.7,0.5,0.7,0.5s-0.8,0.1-1.1-0.1c0.2,0.4,0.2,0.8,0.2,0.8s-1.2-0.3-1.7-1.1"/>
		<path fill="#96877D" stroke="#000000" stroke-width="0.203" d="M-428.2,810.5c-0.3,0.7-2.5-0.6-2.5-0.6s1,1.5,2.4,1.7"/>
		<path fill="#96877D" stroke="#000000" stroke-width="0.203" d="M-455.8,824.7h25.9l2-1.6l-3.3-1.8l-5.1-1.7l-2-1.1l-3.8,0.2
			l-3.2,1.7l-4.4,0.5l-1,1.2l-3.2,0.3l-5.1-0.1l8.5,1.3l-7-0.4L-455.8,824.7L-455.8,824.7z"/>
		<path fill="#96877D" stroke="#000000" stroke-width="0.203" d="M-441.9,817.2c-3.2-1.7-4.2,2.5-5.6,3.6c1.9,0.3,3.3-1.4,4.9-2.3
			c1.2,3.3,3.2,1.1,3.2,1.1s2,3.2,4.7,1.7c0.7,0.6,1.5,0.1,1.5,0.1s1,0.2,1.2-0.3c0.5,0.2,1.1-0.5,1.1-0.5s1.1,0,1.3-0.6
			c1.7,0.3,3.8-3.4,3.8-3.4l0.7-1.3l1-0.2c0,0,0.1-0.6-0.5-0.6c0-0.4-0.3-0.6-0.8-0.5c0.1-0.2-0.3-0.4-0.3-0.4c-0.9,0.2-1,2.6-1,2.6
			s-1.6,1.2-2.2,1.5c0-1.3-2.3-3.1-1.8-4c0.5-0.9,1.9,1.3,3.2,0.9c1.3-0.4,1.9-2,1.9-3.3c-0.4-0.9-1.2-2.3-1.2-2.3l-0.8-0.1
			l-0.7-1.7c0,0-1.5,1-1.5,1.8c0,0.9,1.6,1.6,1.6,1.6s-0.9,0.6-1.7,0.3c-0.1,0.9,1,0.7,1.4,0.7c0.2,0.6,0.8,1,0.8,1s0.4,1-0.6,0.9
			c-1-0.1-2.2-2.4-3.6-1.3c-1.5,1.1,0.7,3.2,0.7,3.2s-1.3,0.7-2.1,2.5C-436.5,815.3-438.3,816.5-441.9,817.2L-441.9,817.2z"/>
		<path fill="#96877D" stroke="#000000" stroke-width="0.203" d="M-446.5,812.7c1.3,1.3,0.4,3.3,0.9,3.7c0.6,0.4,1.3-0.2,1.3-0.2
			c1.4,0.4,3.9-0.4,3.9-0.4c1.1,0.6,0.7-0.3,1.3-0.3c0.6,1.5,2.6,1.2,2.6,1.2s-1.8-1.8-2.9-2.4c-0.9,0.5-3.4,0.6-3.8,0.5
			c-0.5-0.1-0.2-0.7-0.4-1c0.9-0.9,0.2-3.1-0.3-3.9C-446,808.6-448.4,810.9-446.5,812.7L-446.5,812.7z"/>
		<path fill="#96877D" stroke="#000000" stroke-width="0.203" d="M-455.4,808.9c-1.7,0.5-4.6-2.2-5.9-1.2s-0.7,3.5,0.2,4.7
			c0.9,1.2-1.3,1.6-1.9,2.4c-0.6,0.7,0.2,1.4,0.2,1.4l0.6,0.4l-0.1,0.9l0.3,1.1c0,0,0.3,0.3,0.4-0.1c0.3,0.3,0,1.1,0.7,1.2
			c-0.2-0.5,0.2-2,0.2-2s1.2,0.1,1.5-0.4s-0.3-1.7-0.3-1.7h0.4c-0.4-0.3-0.5-1.1-0.5-1.1s1.7-0.5,1.7-1.8c0-1.3-2.7-2.6-1.7-3.3
			c1.1-0.7,3,1.9,4.7,0.7c1.6-1.2,0.6,0,0.6,0S-453.7,808.5-455.4,808.9L-455.4,808.9z"/>
		<path fill="#96877D" stroke="#000000" stroke-width="0.203" d="M-446.8,791c-2.2-0.9-6.8-1-9.4-2.3c-1.1,0.1-1.6,1-1.7,1.3
			c-1.2-0.1-2,1.8-1.8,2.2c-2.1-0.9-3.1,2.5-2.4,3.2c-1.8,0.1-1.6,2.4-1.8,3c-0.6,1.4,0.1,1.9,1.3,1.4c0.2,0.6-0.1,1-0.6,1.1
			c3.2,3.6,4.9-2.2,7.7-2.2c3.5-1,4.8-2.7,4.8-2.7l1.4,0.2L-446.8,791L-446.8,791z"/>
		<circle fill="#96877D" stroke="#000000" stroke-width="0.203" cx="-443.9" cy="788.4" r="3.3"/>
		<path fill="#96877D" stroke="#000000" stroke-width="0.203" d="M-449.7,814.4c-2-0.4-5.4-2.5-5.8-5.3c1.9-7.5,11.8-3.6,12.6-9.2
			c-0.2-3.7,0.4-7.4,2.5-10.5c1-1.2,2.2-1.5,2.2-1.5s0.2,0.8-0.1,1.3c1.6-0.2,3.9,0.7,5.4,0.8c0.4,0.9,0.4,1.2,0.3,1.8
			c-0.1,0.6-0.7,0.4-0.7,0.4c-0.4,0.4-0.9,0.8-1.9,0.6c-0.8,0.6-2.5,0.8-2.5,0.8s3.6,3.8,3,4.9c0.7,0.3,1.8,2,1.8,2s2.4-1.3,3.2-2.5
			c1.4,0,3.7,1.5,4.9,1.6c1.4,1.1,2.8,2.3,2.8,2.3s-1.7,1.1-2.4-0.4c-0.9,0.1-2.8-2-5.4-1.4c-0.1,2.3-2.7,4-2.7,4s2.4-0.3,3.7,0.5
			c1.4,1.2,3.4,2.7,3.4,2.7l1.8,3.1c0,0-1.6,0.3-2.3-1.8c-0.6,1.7-0.6-1.1-3.1-2.4c-0.7,0.1-1.1,0.1-1.7-0.4
			c-1.8,0.5-3.8,1.5-6.3,1.2c-1.8,0.6-3,2-4.8,2.8c-1.8,0.8-2.3,0.4-2.3,0.4l-1.4,0.1c-0.2,0.9-0.1,2.2-0.9,2.4
			c0.5,0.5-0.4,2.8-1.2,3.2c0.4,1.5,1.6,1.9,2.9,2.7c0,0,1.1-0.5,1.8,0.2c0.7,0.7,1.5,2.6,1.5,2.6s-1.5,0.1-2-0.1
			c-0.5-0.2-0.5-0.7-1.1-0.6c-3.5-3.1-5.3-1.9-5.6-2.6C-450.5,817.5-449.3,815.6-449.7,814.4L-449.7,814.4z"/>
		<path fill="#96877D" stroke="#000000" stroke-width="0.203" d="M-458,800.7c0.2-0.2,1.4,0.3,1.4,0.3l2.3,1.4l4.7,3l1.7,2.4l-3-1
			l-4.2-3.6l-2.2-1.4C-457.3,801.8-458.2,800.9-458,800.7L-458,800.7z"/>
		<path fill="#96877D" stroke="#000000" stroke-width="0.203" d="M-430.1,808.4c-1.6-0.4-5.6,4.5-5.6,4.5l3,3.3
			C-432.8,816.1-432.7,810.5-430.1,808.4z"/>
		<path fill="#96877D" stroke="#000000" stroke-width="0.203" d="M-450,794.8c-0.9,1.1-1,3.4,0.2,4.4c0.1,1.4,1.3,4.2,2.2,4.5
			c1,0.3,5.1,1.2,6.7,1c-0.3,2.6,1.7,4.6,3.6,6c0,0.2,0,0.5,0.2,0.8c0.2,0.3,1.2,0.3,1.2,0.2c0.4,0.6,2.5,0.9,2.7,0.6
			c0.1-0.3-3.1-2.5-3.8-3.2c-0.6-1.1-1.8-3.7-2-5.7c-1.6-1.9-4.3-1.9-4.3-1.9l0.1-3.7l0.2-4.2l-1.5-0.8c0,0,0.3-0.1,0.5-0.3
			c0.4,0.2,1-0.6,1.1-0.8c0.3,0.1,0.7,0.1,0.7-0.1c0.1-0.2,0.1-0.9,0.2-1.3c1.1-1-0.2-3.1-1.9-3.1c-1.7,0-2.1,2-2,2.2
			c0.2,0.6,0.1,1,0,1.1c-0.1,0.2-0.7,0.5-0.7,0.5s-0.9-0.4-2.1,0c-1.2,0.4-2.4,1.1-2.5,1.8c-0.5,0.1-1.4,0.8-1.5,1.3
			c-0.5-0.1-1.1,0.3-2,1.9c-1.8,0.8-1.9,4.6-1.9,4.6s-0.5,0.7-0.5,1.1c0,0.4,0.2,0.7,0.4,0.6c0,0.2,0.3,0.5,0.5,0.4
			c0.1,0.2,0.4,0.4,0.6,0.3c0,0.2,0.7,0.1,0.8,0c0.1-0.2-0.1-1,0-1.1c0.1-0.1,0.6,0.4,0.8,0.3s0-0.5-0.1-0.6
			c-0.1-0.1-0.6-0.3-0.7-0.9c-0.1-0.6,0.3-1.4,0.3-1.4s1.9-1.5,2.1-2.8C-451.2,796.5-450.4,795.3-450,794.8L-450,794.8z"/>
		<path fill="#96877D" stroke="#000000" stroke-width="0.203" d="M-453.3,789.4c0.4-1.1,2-1,2-1s0.6-1.5,2.7-0.6
			c0.8-0.6,2.9,0.3,2.9,0.3s0.8-1.1,1.8-0.9c1.9,0.2,2.2,2,2.1,2.3c-1.1,0.3-2.9-0.9-4.3-0.5c-0.8,0.5-2.1,0.9-2.6,1.6
			C-449.9,790.6-451.2,789.3-453.3,789.4L-453.3,789.4z"/>
		<path fill="#96877D" stroke="#000000" stroke-width="0.203" d="M-449.3,791.2c0.5-0.3,1.7-0.8,2.5-0.2c0.8,0.9,2.1,1.7,2.1,1.7
			l1.5,0.6l0.7,0.4l-0.4,6.7c-1.4-1.4-2.6-1.6-3.6-3.3c-0.5-0.7-0.1-2.4-1-3.5S-449.5,791.8-449.3,791.2L-449.3,791.2z"/>
		<path fill="#96877D" stroke="#000000" stroke-width="0.203" d="M-445.8,793.1c0,0,0.8-0.1,1,0c0.3,0.1,0.5,0.2,0.6,0.4
			c0.3,0.1,0.5,0.2,0.5,0.5c0.3,0.1,0.4,0.6,0.4,0.6l-0.3,0.4c0,0-0.3-0.3-0.3-0.6c-0.2-0.1-0.6-0.2-0.7-0.5c-0.3,0-0.5-0.2-0.6-0.5
			C-445.5,793.5-445.8,793.1-445.8,793.1L-445.8,793.1z"/>
		<path fill="#96877D" stroke="#000000" stroke-width="0.203" d="M-439.3,788.7c-0.4-0.5-1.2-0.1-1.2-0.1l-2,3.5l-0.9,0.7l-0.1,2.8
			l0.7,2.6l-0.3,2c0,0,1-1,1.2-1.5c0.1-0.5-0.4-2.2-0.4-2.2s-0.6-1.1,0.1-3C-441.4,791.6-439.7,789.9-439.3,788.7L-439.3,788.7z"/>
		<path fill="#96877D" stroke="#000000" stroke-width="0.203" d="M-434.3,791.9c0,0-3.2,4.6-8.4,6.2c-1.4,0.3-0.9-3.4-0.9-3.4
			l-0.4,0.1c0,0-0.8,3.7,1.1,3.7c5.3-1,9.2-6.6,9.2-6.6L-434.3,791.9L-434.3,791.9z"/>
		<path fill="#96877D" stroke="#000000" stroke-width="0.203" d="M-432.1,818.2c0,0-0.5,0.4-1.1,0c-0.3-0.8-1.2-0.8-1.2-0.8
			s-0.6-1.7-1.5-1.2c-0.1-0.9-1.1-0.4-1.1-0.4s0-1.2-1.2-1.1c0.4-1.4-1.6-1.3-1.6-1.3s-0.1-1.6-3-1.3c6.3-2.8,11.2,4.4,11.2,4.4"/>
		<path fill="#96877D" stroke="#000000" stroke-width="0.203" d="M-429.1,818.8c0,0,1.4,1.6,2.2,1.6c0.8,0,0.8-1.6,0.8-1.6
			s0.2,0.7,0.6,0.5c0,0.5,0.5,0.6,0.5,0.6s-1.3,3-5,0.2"/>
		<path fill="#96877D" stroke="#000000" stroke-width="0.203" d="M-440.5,819.4l-0.5,2.1c0,0-0.7,0.6-0.5,0.7
			c0.2,0.1,1.2-0.2,1.2-0.2s1.6-0.2,2.1-0.7c0.3,0.8,1.1,0.8,1.1,0.8s0.1-0.3-0.1-0.5c0.4,0.1,0.7-0.1,0.7-0.1s0.2-0.6-0.3-0.8
			c0.1-0.4,0.3-0.8-0.5-0.8c-0.6,0.6-2,1.3-2.4,1.1c-0.4-0.2,1.4-1,0.9-2"/>
	</g>
</g>
</svg>
