<?xml version="1.0" encoding="utf-8"?>
<!-- Generator: Adobe Illustrator 18.1.1, SVG Export Plug-In . SVG Version: 6.00 Build 0)  -->
<svg version="1.1" id="Layer_1" xmlns="http://www.w3.org/2000/svg" xmlns:xlink="http://www.w3.org/1999/xlink" x="0px" y="0px"
	 width="180px" height="90px" viewBox="0 0 180 90" enable-background="new 0 0 180 90" xml:space="preserve">
<g id="Flag_13_">
	<rect id="Background_1_" fill="#34495E" width="180" height="90"/>
	<g id="Stars">
		<g id="_x34_">
			<polygon fill="#ECF0F1" points="135,75.2 130.2,78.6 132,73 127.3,69.5 133.1,69.5 135,63.9 136.9,69.5 142.7,69.5 138,73 
				139.8,78.6 			"/>
			<polygon fill="#E74C3C" points="135,74.2 131.8,76.4 132.9,72.7 129.9,70.3 133.7,70.2 135,66.6 136.3,70.2 140.1,70.3 
				137.1,72.7 138.2,76.4 			"/>
		</g>
		<g id="_x33_">
			<polygon fill-rule="evenodd" clip-rule="evenodd" fill="#ECF0F1" points="153,35.7 149.3,38.4 150.8,34 147,31.4 151.6,31.4 
				153,27 154.4,31.4 159,31.4 155.2,34 156.7,38.4 			"/>
			<polygon fill-rule="evenodd" clip-rule="evenodd" fill="#E74C3C" points="153,34.9 150.7,36.5 151.5,33.8 149.3,32.1 152.1,32 
				153,29.4 153.9,32 156.7,32.1 154.5,33.8 155.3,36.5 			"/>
		</g>
		<g id="_x32_">
			<polygon fill="#ECF0F1" points="114.3,41.6 110.1,44.7 111.7,39.7 107.5,36.7 112.7,36.7 114.3,31.7 115.9,36.7 121.1,36.7 
				116.9,39.7 118.5,44.7 			"/>
			<polygon fill="#E74C3C" points="114.3,34.4 115.4,37.4 118.6,37.5 116,39.4 116.9,42.5 114.3,40.7 111.7,42.5 112.6,39.4 
				110,37.5 113.2,37.4 			"/>
		</g>
		<g id="_x31_">
			<polygon fill="#ECF0F1" points="135,20.7 130.8,23.8 132.4,18.8 128.2,15.8 133.4,15.8 135,10.8 136.6,15.8 141.8,15.8 
				137.6,18.8 139.2,23.8 			"/>
			<polygon fill="#E74C3C" points="135,13.5 136.1,16.5 139.3,16.6 136.7,18.6 137.6,21.6 135,19.8 132.4,21.6 133.3,18.6 
				130.7,16.6 133.9,16.5 			"/>
		</g>
	</g>
	<g id="Union_Jack_1_">
		<rect fill="#34495E" width="90" height="45"/>
		<polygon fill="#ECF0F1" points="90,0 79.5,0 52,13.5 52,0 37,0 37,13.5 10.5,0 0,0 0,5.1 19.9,15 0,15 0,30 19.9,30 0,39.9 0,45 
			10.5,45 37,31.5 37,45 52,45 52,31.5 79.5,45 90,45 90,39.9 70.1,30 90,30 90,15 70.1,15 90,5.1 		"/>
		<g>
			<g>
				<polygon fill="#E74C3C" points="30,15 0,0 0,3.4 23.2,15 				"/>
				<polygon fill="#E74C3C" points="66.8,30 60,30 90,45 90,41.6 				"/>
				<polygon fill="#E74C3C" points="53.2,15 60,15 90,0 83.2,0 				"/>
				<polygon fill="#E74C3C" points="36.8,30 30,30 0,45 6.8,45 				"/>
			</g>
			<polygon fill-rule="evenodd" clip-rule="evenodd" fill="#E74C3C" points="90,18 49.5,18 49.5,0 40.5,0 40.5,18 0,18 0,27 
				40.5,27 40.5,45 49.5,45 49.5,27 90,27 			"/>
		</g>
	</g>
</g>
</svg>
