<?xml version="1.0" encoding="utf-8"?>
<!-- Generator: Adobe Illustrator 18.1.1, SVG Export Plug-In . SVG Version: 6.00 Build 0)  -->
<svg version="1.1" id="Layer_1" xmlns="http://www.w3.org/2000/svg" xmlns:xlink="http://www.w3.org/1999/xlink" x="0px" y="0px"
	 width="171px" height="90px" viewBox="0 0 171 90" enable-background="new 0 0 171 90" xml:space="preserve">
<g id="Flag_34_">
	<g id="White_stripes">
		<rect y="76.2" fill="#ECF0F1" width="171" height="6.9"/>
		<rect y="62.3" fill="#ECF0F1" width="171" height="6.9"/>
		<rect y="48.5" fill="#ECF0F1" width="171" height="6.9"/>
		<rect y="34.6" fill="#ECF0F1" width="171" height="6.9"/>
		<rect y="20.8" fill="#ECF0F1" width="171" height="6.9"/>
		<rect y="6.9" fill="#ECF0F1" width="171" height="6.9"/>
	</g>
	<g id="Red_stripes">
		<rect y="83.1" fill="#C0392B" width="171" height="6.9"/>
		<rect y="69.2" fill="#C0392B" width="171" height="6.9"/>
		<rect y="55.4" fill="#C0392B" width="171" height="6.9"/>
		<rect y="41.5" fill="#C0392B" width="171" height="6.9"/>
		<rect y="27.7" fill="#C0392B" width="171" height="6.9"/>
		<rect y="13.8" fill="#C0392B" width="171" height="6.9"/>
		<rect y="0" fill="#C0392B" width="171" height="6.9"/>
	</g>
	<rect id="Canton" fill="#34495E" width="68.4" height="48.5"/>
	<g id="Stars_2_">
		<g>
			<g>
				<polygon fill="#ECF0F1" points="62.7,45.1 61,46.4 61.6,44.3 59.9,43 62,42.9 62.7,40.8 63.4,42.9 65.4,43 63.8,44.3 64.4,46.4 
									"/>
				<polygon fill="#ECF0F1" points="51.3,45.1 49.6,46.4 50.2,44.3 48.5,43 50.6,42.9 51.3,40.8 52,42.9 54,43 52.4,44.3 53,46.4 
									"/>
				<polygon fill="#ECF0F1" points="39.9,45.1 38.2,46.4 38.8,44.3 37.1,43 39.2,42.9 39.9,40.8 40.6,42.9 42.7,43 41,44.3 
					41.6,46.4 				"/>
				<polygon fill="#ECF0F1" points="28.5,45.1 26.8,46.4 27.4,44.3 25.7,43 27.8,42.9 28.5,40.8 29.2,42.9 31.3,43 29.6,44.3 
					30.2,46.4 				"/>
				<polygon fill="#ECF0F1" points="17.1,45.1 15.4,46.4 16,44.3 14.3,43 16.4,42.9 17.1,40.8 17.8,42.9 19.9,43 18.2,44.3 
					18.8,46.4 				"/>
				<polygon fill="#ECF0F1" points="5.7,45.1 4,46.4 4.6,44.3 2.9,43 5,42.9 5.7,40.8 6.4,42.9 8.5,43 6.8,44.3 7.4,46.4 				"/>
			</g>
			<g>
				<polygon fill="#ECF0F1" points="62.7,35.4 61,36.7 61.6,34.6 59.9,33.3 62,33.2 62.7,31.2 63.4,33.2 65.4,33.3 63.8,34.6 
					64.4,36.7 				"/>
				<polygon fill="#ECF0F1" points="51.3,35.4 49.6,36.7 50.2,34.6 48.5,33.3 50.6,33.2 51.3,31.2 52,33.2 54,33.3 52.4,34.6 
					53,36.7 				"/>
				<polygon fill="#ECF0F1" points="39.9,35.4 38.2,36.7 38.8,34.6 37.1,33.3 39.2,33.2 39.9,31.2 40.6,33.2 42.7,33.3 41,34.6 
					41.6,36.7 				"/>
				<polygon fill="#ECF0F1" points="28.5,35.4 26.8,36.7 27.4,34.6 25.7,33.3 27.8,33.2 28.5,31.2 29.2,33.2 31.3,33.3 29.6,34.6 
					30.2,36.7 				"/>
				<polygon fill="#ECF0F1" points="17.1,35.4 15.4,36.7 16,34.6 14.3,33.3 16.4,33.2 17.1,31.2 17.8,33.2 19.9,33.3 18.2,34.6 
					18.8,36.7 				"/>
				<polygon fill="#ECF0F1" points="5.7,35.4 4,36.7 4.6,34.6 2.9,33.3 5,33.2 5.7,31.2 6.4,33.2 8.5,33.3 6.8,34.6 7.4,36.7 				
					"/>
			</g>
			<g>
				<polygon fill="#ECF0F1" points="62.7,25.7 61,27 61.6,24.9 59.9,23.6 62,23.5 62.7,21.5 63.4,23.5 65.4,23.6 63.8,24.9 64.4,27 
									"/>
				<polygon fill="#ECF0F1" points="51.3,25.7 49.6,27 50.2,24.9 48.5,23.6 50.6,23.5 51.3,21.5 52,23.5 54,23.6 52.4,24.9 53,27 
									"/>
				<polygon fill="#ECF0F1" points="39.9,25.7 38.2,27 38.8,24.9 37.1,23.6 39.2,23.5 39.9,21.5 40.6,23.5 42.7,23.6 41,24.9 
					41.6,27 				"/>
				<polygon fill="#ECF0F1" points="28.5,25.7 26.8,27 27.4,24.9 25.7,23.6 27.8,23.5 28.5,21.5 29.2,23.5 31.3,23.6 29.6,24.9 
					30.2,27 				"/>
				<polygon fill="#ECF0F1" points="17.1,25.7 15.4,27 16,24.9 14.3,23.6 16.4,23.5 17.1,21.5 17.8,23.5 19.9,23.6 18.2,24.9 
					18.8,27 				"/>
				<polygon fill="#ECF0F1" points="5.7,25.7 4,27 4.6,24.9 2.9,23.6 5,23.5 5.7,21.5 6.4,23.5 8.5,23.6 6.8,24.9 7.4,27 				"/>
			</g>
			<g>
				<polygon fill="#ECF0F1" points="62.7,16.1 61,17.3 61.6,15.2 59.9,13.9 62,13.8 62.7,11.8 63.4,13.8 65.4,13.9 63.8,15.2 
					64.4,17.3 				"/>
				<polygon fill="#ECF0F1" points="51.3,16.1 49.6,17.3 50.2,15.2 48.5,13.9 50.6,13.8 51.3,11.8 52,13.8 54,13.9 52.4,15.2 
					53,17.3 				"/>
				<polygon fill="#ECF0F1" points="39.9,16.1 38.2,17.3 38.8,15.2 37.1,13.9 39.2,13.8 39.9,11.8 40.6,13.8 42.7,13.9 41,15.2 
					41.6,17.3 				"/>
				<polygon fill="#ECF0F1" points="28.5,16.1 26.8,17.3 27.4,15.2 25.7,13.9 27.8,13.8 28.5,11.8 29.2,13.8 31.3,13.9 29.6,15.2 
					30.2,17.3 				"/>
				<polygon fill="#ECF0F1" points="17.1,16.1 15.4,17.3 16,15.2 14.3,13.9 16.4,13.8 17.1,11.8 17.8,13.8 19.9,13.9 18.2,15.2 
					18.8,17.3 				"/>
				<polygon fill="#ECF0F1" points="5.7,16.1 4,17.3 4.6,15.2 2.9,13.9 5,13.8 5.7,11.8 6.4,13.8 8.5,13.9 6.8,15.2 7.4,17.3 				
					"/>
			</g>
			<g>
				<polygon fill="#ECF0F1" points="62.7,6.4 61,7.6 61.6,5.5 59.9,4.2 62,4.1 62.7,2.1 63.4,4.1 65.4,4.2 63.8,5.5 64.4,7.6 				
					"/>
				<polygon fill="#ECF0F1" points="51.3,6.4 49.6,7.6 50.2,5.5 48.5,4.2 50.6,4.1 51.3,2.1 52,4.1 54,4.2 52.4,5.5 53,7.6 				"/>
				<polygon fill="#ECF0F1" points="39.9,6.4 38.2,7.6 38.8,5.5 37.1,4.2 39.2,4.1 39.9,2.1 40.6,4.1 42.7,4.2 41,5.5 41.6,7.6 				
					"/>
				<polygon fill="#ECF0F1" points="28.5,6.4 26.8,7.6 27.4,5.5 25.7,4.2 27.8,4.1 28.5,2.1 29.2,4.1 31.3,4.2 29.6,5.5 30.2,7.6 
									"/>
				<polygon fill="#ECF0F1" points="17.1,6.4 15.4,7.6 16,5.5 14.3,4.2 16.4,4.1 17.1,2.1 17.8,4.1 19.9,4.2 18.2,5.5 18.8,7.6 				
					"/>
				<polygon fill="#ECF0F1" points="5.7,6.4 4,7.6 4.6,5.5 2.9,4.2 5,4.1 5.7,2.1 6.4,4.1 8.5,4.2 6.8,5.5 7.4,7.6 				"/>
			</g>
		</g>
		<g>
			<g>
				<polygon fill="#ECF0F1" points="57,40.2 55.3,41.5 55.9,39.4 54.2,38.1 56.3,38 57,36 57.7,38 59.7,38.1 58.1,39.4 58.7,41.5 
									"/>
				<polygon fill="#ECF0F1" points="45.6,40.2 43.9,41.5 44.5,39.4 42.8,38.1 44.9,38 45.6,36 46.3,38 48.3,38.1 46.7,39.4 
					47.3,41.5 				"/>
				<polygon fill="#ECF0F1" points="34.2,40.2 32.5,41.5 33.1,39.4 31.4,38.1 33.5,38 34.2,36 34.9,38 37,38.1 35.3,39.4 35.9,41.5 
									"/>
				<polygon fill="#ECF0F1" points="22.8,40.2 21.1,41.5 21.7,39.4 20,38.1 22.1,38 22.8,36 23.5,38 25.6,38.1 23.9,39.4 24.5,41.5 
									"/>
				<polygon fill="#ECF0F1" points="11.4,40.2 9.7,41.5 10.3,39.4 8.6,38.1 10.7,38 11.4,36 12.1,38 14.2,38.1 12.5,39.4 13.1,41.5 
									"/>
			</g>
			<g>
				<polygon fill="#ECF0F1" points="57,30.6 55.3,31.8 55.9,29.7 54.2,28.4 56.3,28.3 57,26.3 57.7,28.3 59.7,28.4 58.1,29.7 
					58.7,31.8 				"/>
				<polygon fill="#ECF0F1" points="45.6,30.6 43.9,31.8 44.5,29.7 42.8,28.4 44.9,28.3 45.6,26.3 46.3,28.3 48.3,28.4 46.7,29.7 
					47.3,31.8 				"/>
				<polygon fill="#ECF0F1" points="34.2,30.6 32.5,31.8 33.1,29.7 31.4,28.4 33.5,28.3 34.2,26.3 34.9,28.3 37,28.4 35.3,29.7 
					35.9,31.8 				"/>
				<polygon fill="#ECF0F1" points="22.8,30.6 21.1,31.8 21.7,29.7 20,28.4 22.1,28.3 22.8,26.3 23.5,28.3 25.6,28.4 23.9,29.7 
					24.5,31.8 				"/>
				<polygon fill="#ECF0F1" points="11.4,30.6 9.7,31.8 10.3,29.7 8.6,28.4 10.7,28.3 11.4,26.3 12.1,28.3 14.2,28.4 12.5,29.7 
					13.1,31.8 				"/>
			</g>
			<g>
				<polygon fill="#ECF0F1" points="57,20.9 55.3,22.1 55.9,20 54.2,18.7 56.3,18.6 57,16.6 57.7,18.6 59.7,18.7 58.1,20 58.7,22.1 
									"/>
				<polygon fill="#ECF0F1" points="45.6,20.9 43.9,22.1 44.5,20 42.8,18.7 44.9,18.6 45.6,16.6 46.3,18.6 48.3,18.7 46.7,20 
					47.3,22.1 				"/>
				<polygon fill="#ECF0F1" points="34.2,20.9 32.5,22.1 33.1,20 31.4,18.7 33.5,18.6 34.2,16.6 34.9,18.6 37,18.7 35.3,20 
					35.9,22.1 				"/>
				<polygon fill="#ECF0F1" points="22.8,20.9 21.1,22.1 21.7,20 20,18.7 22.1,18.6 22.8,16.6 23.5,18.6 25.6,18.7 23.9,20 
					24.5,22.1 				"/>
				<polygon fill="#ECF0F1" points="11.4,20.9 9.7,22.1 10.3,20 8.6,18.7 10.7,18.6 11.4,16.6 12.1,18.6 14.2,18.7 12.5,20 
					13.1,22.1 				"/>
			</g>
			<g>
				<polygon fill="#ECF0F1" points="57,11.2 55.3,12.4 55.9,10.3 54.2,9 56.3,9 57,6.9 57.7,9 59.7,9 58.1,10.3 58.7,12.4 				"/>
				<polygon fill="#ECF0F1" points="45.6,11.2 43.9,12.4 44.5,10.3 42.8,9 44.9,9 45.6,6.9 46.3,9 48.3,9 46.7,10.3 47.3,12.4 				
					"/>
				<polygon fill="#ECF0F1" points="34.2,11.2 32.5,12.4 33.1,10.3 31.4,9 33.5,9 34.2,6.9 34.9,9 37,9 35.3,10.3 35.9,12.4 				"/>
				<polygon fill="#ECF0F1" points="22.8,11.2 21.1,12.4 21.7,10.3 20,9 22.1,9 22.8,6.9 23.5,9 25.6,9 23.9,10.3 24.5,12.4 				"/>
				<polygon fill="#ECF0F1" points="11.4,11.2 9.7,12.4 10.3,10.3 8.6,9 10.7,9 11.4,6.9 12.1,9 14.2,9 12.5,10.3 13.1,12.4 				"/>
			</g>
		</g>
	</g>
</g>
</svg>
