<?xml version="1.0" encoding="utf-8"?>
<!-- Generator: Adobe Illustrator 18.1.1, SVG Export Plug-In . SVG Version: 6.00 Build 0)  -->
<svg version="1.1" id="Layer_1" xmlns="http://www.w3.org/2000/svg" xmlns:xlink="http://www.w3.org/1999/xlink" x="0px" y="0px"
	 width="180px" height="90px" viewBox="0 0 180 90" enable-background="new 0 0 180 90" xml:space="preserve">
<g id="Flag_3_">
	<g id="Bordering_fields">
		<path fill-rule="evenodd" clip-rule="evenodd" fill="#E74C3C" d="M45,0c0,30,0,60,0,90c-15,0-30,0-45,0C0,60,0,30,0,0
			C15,0,30,0,45,0z"/>
		<path fill-rule="evenodd" clip-rule="evenodd" fill="#E74C3C" d="M135,0c15,0,30,0,45,0c0,30,0,60,0,90c-15,0-30,0-45,0
			C135,60,135,30,135,0z"/>
	</g>
	<rect id="Canadian_pale" x="45" fill="#ECF0F1" width="90" height="90"/>
	<path id="Maple_leaf" fill-rule="evenodd" clip-rule="evenodd" fill="#E74C3C" d="M111.4,57.6c4.7-3.8,10.2-7.8,13.7-11
		c-1.6-1-4-0.9-4.5-2.7c-0.7-2.8,3.6-9.3,2.7-11.7c-3.4,0.6-7.1,2.2-10.8,1.8c-0.9-1.5-1-3.7-1.8-5.2c-1.4,1.7-2.8,3.5-4.3,5.2
		c-1.4,1.6-2.9,3.9-5.4,4.3c-1.2-2.9,0-6.6,0.7-9.9c0.6-3.4,1.5-6.9,2-10.1c-2.5,0.2-3.8,3.2-6.3,2.7C95.1,20.5,92.3,11,90,9
		c-2.3,2.1-5.1,11.5-7.4,12c-2.5,0.5-3.8-2.5-6.3-2.7c0.6,3.2,1.4,6.7,2,10.1c0.6,3.3,1.9,7,0.7,9.9c-2.5-0.4-4-2.7-5.4-4.3
		c-1.5-1.7-2.9-3.4-4.3-5.2c-0.8,1.5-0.9,3.7-1.8,5.2c-3.7,0.4-7.4-1.2-10.8-1.8c-0.9,2.4,3.4,8.9,2.7,11.7
		c-0.5,1.8-2.9,1.7-4.5,2.7c3.5,3.2,9.1,7.2,13.7,11c1.1,0.9,3.8,2.9,4,4.1c0.4,1.9-1.5,3.7-1.6,5.8c5.7-0.7,11-1.9,17.1-2.2
		c1.4,0.7,0.9,2.7,0.9,4.3c0,4.7-0.3,9.8-0.2,14.8c0.4,0,1.9,0,2.2,0c0.1-5.1-0.2-10.1-0.2-14.8c0-1.6-0.5-3.6,0.9-4.3
		c6.1,0.4,11.3,1.6,17.1,2.2c-0.1-2.1-1.9-3.9-1.6-5.8C107.5,60.5,110.3,58.5,111.4,57.6z"/>
</g>
</svg>
